<svg width="828" height="232" viewBox="0 0 828 232" fill="none" xmlns="http://www.w3.org/2000/svg">
<path d="M87.28 21.6698C86.173 16.5938 86.3395 12.5123 91.773 10.0278C126.432 -5.80071 167.924 0.188282 204.115 7.11528C207.502 7.76328 216.373 10.2823 215.168 14.6798C213.721 16.2813 213.028 16.4193 210.996 17.3438C207.238 18.8878 203.762 19.2548 200.156 20.4813C214.495 25.6883 235.256 21.6748 250.358 23.4333C260.159 24.5748 260.374 27.7703 268.427 31.4638C274.732 34.3548 293.022 35.7308 296.244 42.4088C296.292 44.5218 296.583 43.6103 295.486 45.2823C293.648 46.2848 293.654 46.2733 291.608 46.7493C278.733 49.3593 263.207 47.1178 252.542 48.7413C265.921 54.8378 302.48 55.9618 318.313 59.2888C321.023 59.8578 327.47 61.3408 328.759 63.8513C329.384 65.0673 329.392 66.5078 328.784 67.7323C328.211 68.8898 326.637 70.7183 325.688 71.6078C329.758 72.4178 333.836 73.2248 338.155 74.4718C341.566 75.4563 357.056 79.5118 353.622 85.4618C352.891 86.7303 348.458 88.2548 346.751 88.6573C322.198 93.2278 292.37 87.1453 267.691 90.0073C261.511 90.7238 238.933 99.3358 233.659 103.205C237.549 104.486 253.244 109.231 250.762 114.776C249.228 115.951 248.584 115.941 246.717 116.336C235.462 117.416 220.959 116.956 209.209 117.396C198.997 123.866 193.677 129.776 180.955 134.531C170.303 138.516 163.635 138.926 152.732 141.091C137.149 144.181 119.512 154.761 106.868 164.321C89.844 177.201 84.8475 195.576 82.5745 216.056C115.653 216.156 143.667 217.301 175.054 229.701C172.32 232.041 19.972 228.036 0 231.436C9.7945 227.761 16.7745 224.441 27.1405 221.626C31.454 220.456 42.4255 218.806 44.278 217.976C45.853 212.071 48.4515 206.931 50.768 201.341C63.334 171.026 84.5255 148.111 102.855 121.556C96.628 126.626 91.9835 130.546 86.214 136.066C88.5755 125.691 87.166 118.196 83.3835 108.386C80.2165 106.726 77.036 105.086 73.8605 103.439C65.13 98.9123 57.877 92.2523 50.221 86.1838C37.1975 86.6593 14.3075 88.7463 3.2225 82.6628C-4.4755 73.6088 9.1965 68.7323 15.5605 66.2843C15.6605 63.0278 15.6845 62.2898 16.5365 59.0373C23.439 52.7153 28.753 52.0023 37.47 49.0908C35.1365 47.0248 26.6865 41.1768 31.126 37.1898C44.839 24.8758 69.938 23.9183 87.28 21.6698ZM144.594 113.686C144.374 113.116 144.346 112.521 144.254 111.886C146.46 105.896 156.768 106.556 160.865 104.337C176.755 95.7228 179.642 91.9673 198.355 94.0698C203.613 88.5833 209.988 82.2313 214.77 76.4753C210.776 76.6653 206.561 76.9378 202.581 76.9448C197.235 82.1953 191.024 82.5323 183.794 82.4843C180.067 82.4388 176.342 82.3658 172.617 82.2653C168.101 85.4163 162.432 89.4278 157.776 91.9443C138.553 102.331 124.628 107.326 113.482 127.726C109.74 134.576 106.782 140.071 104.006 147.731C110.128 144.501 116.166 141.101 122.237 137.771C136.055 130.196 151.445 124.721 164.616 116.076C157.45 115.606 151.554 115.541 144.594 113.686ZM85.4255 81.4358C90.492 93.8673 94.048 102.207 97.7425 115.166L98.3585 116.501C103.914 117.351 111.391 103.552 112.201 98.5598C113.05 93.3268 108.942 77.5858 103.976 75.9733C97.4295 77.6848 91.75 79.0248 85.4255 81.4358ZM223.925 100.337C227.16 97.7793 240.138 91.5688 244.358 89.5023C239.988 89.3298 229.684 89.5033 226.792 86.6993C225.633 84.1078 228.558 81.7318 226.195 79.1688C222.653 79.1168 210.956 92.8268 208.51 96.0448L223.925 100.337ZM138.641 91.4523C142.654 89.8063 157.015 83.4703 159.988 81.1678C160.708 79.0133 159.592 77.0228 160.871 75.4598C162.42 73.5673 165.105 71.9213 166.19 69.7148C164.912 69.6768 163.805 69.6488 162.517 69.6908C157.273 70.1268 152.534 70.6753 147.387 71.8498C142.914 81.6593 140.003 84.0503 135.438 92.1923C136.469 92.5048 137.36 91.9033 138.641 91.4523ZM71.21 83.6053L60.6745 84.6123C66.3655 89.7318 68.8765 91.6788 75.7905 94.9663C78.0125 96.6868 79.423 97.2133 81.942 98.3428C80.29 93.7768 78.042 88.0058 76.751 83.4148C74.9695 83.4308 72.9475 83.3638 71.21 83.6053ZM179.92 117.356C174.976 120.786 164.354 127.111 160.685 130.456C166.373 130.316 169.893 130.111 175.362 128.561C182.736 125.996 189.857 123.146 195.523 117.531C190.246 117.346 185.207 117.106 179.92 117.356ZM130.071 71.5938C124.286 72.1288 119.437 72.7573 113.826 74.3678C116.089 79.4053 119.363 86.1643 120.911 91.3028L121.476 91.7628C122.659 90.3123 133.327 73.4578 134.488 71.2443L130.071 71.5938Z" fill="#3D3333"/>
<path d="M87.28 21.6698C86.173 16.5938 86.3395 12.5123 91.773 10.0278C126.432 -5.80071 167.924 0.188282 204.115 7.11528C207.502 7.76328 216.373 10.2823 215.168 14.6798C213.721 16.2813 213.028 16.4193 210.996 17.3438C187.495 10.8758 164.874 6.30079 140.416 10.1163C131.446 11.5153 121.234 13.6673 112.394 15.7418C106.8 17.0548 98.2035 17.3083 94.0705 18.5103C93.1045 21.3663 99.112 24.7073 101.235 26.1778L100.581 26.3328C93.188 28.0398 33.8695 32.6068 38.612 44.2588C42.3075 46.9088 49.229 47.8998 54.1785 50.5258C45.2425 56.1858 19.8875 56.5173 23.061 68.8598L23.2895 69.7708C23.3435 69.9698 23.3975 70.1693 23.451 70.3683C16.496 72.8968 6.151 75.3533 3.2225 82.6628C-4.4755 73.6088 9.1965 68.7323 15.5605 66.2843C15.6605 63.0278 15.6845 62.2898 16.5365 59.0373C23.439 52.7153 28.753 52.0023 37.47 49.0908C35.1365 47.0248 26.6865 41.1768 31.126 37.1898C44.839 24.8758 69.938 23.9183 87.28 21.6698Z" fill="#8D9684"/>
<path d="M242.837 48.4248C244.851 48.3413 251.206 47.8028 252.542 48.7413C265.921 54.8378 302.48 55.9618 318.313 59.2888C321.023 59.8578 327.47 61.3408 328.759 63.8513C329.384 65.0673 329.392 66.5078 328.784 67.7323C328.211 68.8898 326.637 70.7183 325.688 71.6078C329.758 72.4178 333.836 73.2248 338.155 74.4718C341.566 75.4563 357.056 79.5118 353.622 85.4618C352.891 86.7303 348.458 88.2548 346.751 88.6573C341.243 79.0118 319.44 76.1598 309.408 74.6143C311.616 73.1058 315.652 70.4213 316.159 67.7683C313.657 62.4638 279.207 60.7968 272.111 59.3113C260.988 56.9828 251.945 56.4033 242.837 48.4248Z" fill="#8D9684"/>
<path d="M200.156 20.4813C214.495 25.6883 235.256 21.6748 250.358 23.4333C260.159 24.5748 260.374 27.7703 268.427 31.4638C274.732 34.3548 293.022 35.7308 296.244 42.4088C296.292 44.5218 296.583 43.6103 295.486 45.2823C293.648 46.2848 293.654 46.2733 291.608 46.7493C291.59 46.5503 291.219 45.8188 291.118 45.6003C286.739 43.2878 276.548 40.6028 271.081 38.3188C265.607 36.0323 257.392 31.8358 252.163 30.3373C241.193 27.1928 202.88 33.1098 194.166 25.3763C193.076 21.5478 197.363 21.1798 200.156 20.4813Z" fill="#8D9684"/>
<path d="M233.659 103.205C237.549 104.486 253.244 109.231 250.762 114.776C249.228 115.951 248.584 115.941 246.717 116.336C243.96 113.941 231.562 109.371 227.337 107.521C229.554 106.076 231.539 104.806 233.659 103.205Z" fill="#8D9684"/>
<path d="M144.594 113.686C144.374 113.116 144.346 112.521 144.254 111.886C146.46 105.896 156.768 106.556 160.865 104.337C176.755 95.7228 179.642 91.9673 198.355 94.0698C200.669 94.7463 206.151 95.9648 208.51 96.0448L223.925 100.337L216.822 105.286C205.236 100.16 190.985 96.0228 178.547 100.843C172.66 103.125 166.763 107.571 160.924 109.446C155.097 111.321 150.603 111.121 144.594 113.686Z" fill="#8D9684"/>
<path d="M593.831 149.661C608.651 149.051 625.906 148.556 640.296 150.706C662.561 154.031 673.296 173.706 669.246 194.866C666.676 208.306 660.971 216.261 649.566 223.501C633.871 232.431 616.426 229.271 599.221 229.616C596.611 229.666 593.921 229.781 591.371 229.216C590.961 227.911 591.036 227.991 591.476 226.676C592.656 225.566 593.816 225.451 595.326 225.081C597.466 224.561 599.511 224.046 600.611 221.926C602.581 218.126 602.366 162.406 600.546 157.786C599.136 154.221 595.796 154.781 592.976 153.161C591.806 152.486 591.766 152.086 591.516 150.891C592.611 149.771 592.151 150.171 593.831 149.661ZM644.566 219.106C668.466 199.331 659.776 149.651 619.941 154.546C617.751 154.846 614.951 154.886 613.421 156.671C611.706 158.676 612.036 211.801 613.021 217.596C613.426 219.956 613.846 221.176 615.846 222.571C620.376 225.741 628.101 224.956 633.271 223.831C637.381 222.941 641.076 221.486 644.566 219.106Z" fill="#3D3333"/>
<path d="M789.441 142.536C794.811 142.436 807.526 144.936 800.491 153.046C798.531 155.171 796.636 154.731 794.531 153.126C777.196 139.941 778.416 163.901 778.701 175.426L801.346 175.341C801.261 172.221 801.406 168.571 801.461 165.406C803.586 163.321 808.466 157.861 811.356 158.136C813.141 160.306 812.356 171.311 812.401 175.326C816.846 175.256 823.141 174.676 826.811 177.101L826.821 178.911C823.221 181.381 816.726 180.936 812.311 180.931C812.156 191.856 811.846 202.876 812.416 213.781C813.221 229.166 823.506 219.816 827.816 223.526C828.716 227.321 819.266 230.321 816.161 230.971C808.056 232.676 803.396 228.181 801.931 220.516C801.176 209.731 801.801 192.531 801.681 181.046C793.951 180.936 786.216 180.921 778.486 181.001C779.021 193.296 777.346 209.086 779.071 221.466C779.721 226.126 784.771 224.666 788.211 226.591C788.996 228.191 788.776 227.331 788.596 229.326C787.241 230.311 761.366 229.926 759.486 228.736L759.506 227.491C761.491 225.221 767.851 225.371 767.911 221.181C767.976 216.991 767.946 212.761 767.931 208.566L767.886 181.141C764.601 180.986 760.841 181.641 758.506 179.081C758.431 175.506 765.581 175.376 768.071 175.366C767.131 161.456 774.901 145.616 789.441 142.536Z" fill="#3D3333"/>
<path d="M267.478 147.686C267.81 147.696 269.575 147.811 269.668 147.961C270.687 149.641 273.055 156.391 273.597 157.866L285.717 190.986C289.197 200.646 293.859 215.986 299.479 223.921C302.428 224.806 304.965 225.106 306.734 227.551L306.552 228.496C303.936 230.121 299.762 229.656 296.718 229.601C290.665 229.491 284.646 229.461 278.594 229.621C278.162 229.316 277.731 229.006 277.299 228.701L277.295 227.836C278.473 226.406 282.257 224.646 284.21 223.471C285.391 221.051 278.547 205.741 277.241 201.071C273.944 201.286 269.946 201.266 266.59 201.341C262.253 201.406 255.842 201.521 251.703 200.896C237.331 233.531 252.333 221.521 254.034 227.951C252.149 230.506 228.954 230.061 226.78 229.071C226.661 225.831 235.092 224.406 237.161 220.051C240.638 212.726 243.122 205.286 246.008 197.716L256.983 169.251C259.014 163.926 263.136 150.171 267.478 147.686ZM253.452 195.336L264.843 195.311L275.471 195.361C271.467 186.181 268.102 174.391 264.436 164.686C260.905 174.951 257.244 185.166 253.452 195.336Z" fill="#3D3333"/>
<path d="M386.557 173.976C387.877 173.896 389.239 173.786 390.561 173.846C414.676 174.906 398.943 214.656 406.851 221.511C407.951 222.471 409.146 222.496 410.501 222.281C411.431 222.136 412.166 222.061 413.116 222.146C414.351 223.466 413.976 222.671 413.976 224.736C410.871 231.446 398.437 233.906 394.601 224.196C385.175 231.296 376.185 235.586 367.283 224.546C357.581 203.081 380.223 202.266 394.382 195.201C393.906 188.396 393.344 180.431 384.248 179.546C377.494 178.891 377.224 189.081 373.472 192.291C366.211 194.821 364.848 187.896 367.892 183.691C371.376 178.886 381.089 175.231 386.557 173.976ZM379.399 221.386C385.168 224.501 388.837 222.661 394.305 219.961C394.312 217.036 394.529 201.931 394.055 200.111L393.928 199.996C384.586 204.681 370.285 208.616 379.399 221.386Z" fill="#3D3333"/>
<path d="M529.866 174.051C553.971 172.086 546.406 201.346 547.581 215.866C548.296 224.751 552.921 220.681 556.051 221.646C557.186 223.271 556.846 222.381 556.981 224.456C555.006 229.016 546.926 232.121 542.286 230.071C539.466 228.826 538.781 227.036 537.656 224.326C535.911 225.541 534.151 226.731 532.371 227.891C523.761 233.381 514.931 232.056 509.536 223.081C501.096 203.806 524.486 201.166 537.406 195.296C537.421 189.366 536.041 183.016 530.621 179.896C523.821 175.986 518.266 188.451 516.481 192.221C515.091 192.741 513.491 192.766 512.121 192.161C510.886 191.621 509.921 190.596 509.456 189.331C506.746 182.011 524.151 175.196 529.866 174.051ZM522.181 221.206C528.486 225.071 531.151 222.806 537.356 219.726C537.381 214.336 537.656 205.216 537.296 200.111C527.981 204.101 513.126 208.281 522.181 221.206Z" fill="#3D3333"/>
<path d="M342.923 173.621C346.946 173.926 352.551 174.746 354.49 178.796C355.217 180.301 355.272 182.041 354.639 183.586C351.774 190.716 345.404 182.151 341.838 180.916C332.71 177.826 325.328 183.081 322.73 191.351C316.212 212.111 334.042 231.471 353.47 216.671C354.818 215.646 355.765 216.301 357.155 216.776C357.233 219.006 356.983 219.106 355.597 220.941C341.467 239.641 312.78 231.766 310.858 207.361C310.149 199.286 312.702 191.261 317.948 185.086C324.908 177.026 332.605 174.286 342.923 173.621Z" fill="#3D3333"/>
<path d="M447.361 174.041C453.426 173.666 463.456 174.121 465.026 181.621C464.731 183.361 462.096 186.451 460.936 186.121C455.921 184.691 453.266 181.276 447.566 180.551C434.866 178.936 430.931 188.716 430.556 199.456C430.436 218.851 447.511 229.596 462.936 216.226C464.661 215.531 465.171 215.956 466.226 217.126C466.521 222.626 454.606 229.671 449.671 230.551C435.391 233.096 422.886 224.896 420.346 210.076C418.921 202.106 420.791 193.896 425.531 187.326C430.731 180.151 438.596 175.361 447.361 174.041Z" fill="#3D3333"/>
<path d="M697.016 173.381L697.321 173.436C698.261 174.691 697.931 184.131 697.951 186.526C701.386 181.251 705.481 174.006 712.341 173.606C720.156 173.146 722.506 181.036 717.581 185.986C714.711 188.866 707.246 181.486 703.756 185.576C700.831 188.106 697.831 195.046 698.081 198.941C698.516 205.611 695.981 219.941 700.431 224.956C703.956 226.126 706.056 224.916 708.301 227.391C708.256 229.141 708.606 228.491 707.651 229.606C703.186 229.391 681.891 230.321 680.091 228.961L679.921 227.546C680.721 225.701 686.281 225.136 686.641 223.556C689.151 212.606 687.266 197.301 687.556 185.986C687.661 181.991 680.566 184.006 679.886 180.081C681.151 177.886 693.301 174.651 697.016 173.381Z" fill="#3D3333"/>
<path d="M490.641 173.991L491.386 174.156C494.231 182.646 489.056 212.956 492.971 223.396C493.606 225.091 499.301 224.906 500.986 227.931L500.611 228.616C497.296 230.291 482.136 229.541 477.171 229.581C474.661 229.746 474.666 229.981 472.676 228.946L472.651 228.351C474.011 226.261 478.631 224.866 480.976 222.096C482.601 213.571 481.336 194.891 481.036 185.851C480.981 184.151 475.981 182.056 474.326 180.816C473.721 179.296 473.696 180.016 474.276 178.596C479.736 177.091 485.196 175.556 490.641 173.991Z" fill="#3D3333"/>
<path d="M744.231 173.551C744.491 173.991 744.561 209.816 744.321 213.306C743.166 230.146 751.096 222.581 753.376 228.186L752.716 229.296C746.991 230.021 734.346 229.446 727.356 229.731C726.611 229.751 726.701 229.656 725.931 229.321L725.686 228.246C727.461 223.536 734.061 227.671 733.921 219.386C733.731 208.226 735.186 195.566 733.056 184.736C732.581 182.321 725.541 182.901 726.476 179.031C729.701 177.501 739.441 175.291 744.231 173.551Z" fill="#3D3333"/>
<path d="M736.201 149.946C745.886 148.611 748.811 158.326 741.011 163.296C731.941 165.141 728.841 154.691 736.201 149.946Z" fill="#3D3333"/>
<path d="M483.831 150.271C486.131 149.486 488.671 149.991 490.491 151.601C492.306 153.206 493.121 155.671 492.616 158.046C492.116 160.421 490.371 162.341 488.061 163.071C484.541 164.191 480.776 162.266 479.621 158.761C478.466 155.256 480.341 151.471 483.831 150.271Z" fill="#3D3333"/>
</svg>
