<svg width="828" height="232" viewBox="0 0 828 232" fill="none" xmlns="http://www.w3.org/2000/svg">
<path d="M103.356 115.316C111.93 103.771 115.64 97.2623 109.488 82.5043C108.687 80.5823 107.539 79.0088 107.939 77.0023C109.294 76.0253 111.795 75.9398 113.556 75.7108C116.444 80.6778 119.431 90.4523 123.702 92.3003C126.175 92.7143 129.927 93.5008 132.305 93.0073C135.202 92.5853 137.737 92.2263 140.536 91.3528C145.338 89.8543 163.981 80.8228 167.906 83.2988C166.555 87.6303 139.827 102.141 134.413 105.736C130.498 108.326 126.859 111.306 123.553 114.636C115.776 122.476 107.592 137.476 104.021 147.831C120.441 140.161 135.922 129.796 152.815 122.821C155.664 121.646 162.204 119.081 163.988 116.826C161.912 114.786 148.716 115.641 144.023 114.666C143.967 113.961 143.842 112.976 144.061 112.286C144.484 110.946 145.684 109.656 146.878 108.931C151.388 106.201 157.933 105.526 162.875 103.327C169.681 100.3 175.649 96.0798 182.849 93.8638C190.685 91.4528 214.044 97.7363 222.896 99.7503C228.025 100.336 236.698 102.394 240.887 105.441C245.883 107.706 252.483 109.891 250.153 116.676C247.191 118.531 214.031 117.581 207.685 117.821C196.161 127.381 185.97 133.686 171.173 136.996C164.853 138.406 157.345 139.826 151.234 141.606C137.108 145.756 123.828 152.376 112.009 161.156C90.1655 177.366 86.169 190.936 82.3985 216.591C110.799 214.726 149.56 219.326 175.768 230.451C166.382 231.436 146.329 230.866 136.15 230.846L51.566 230.781C37.3625 230.776 13.744 230.226 0 231.761C6.643 228.956 13.135 226.341 20.131 224.496C27.522 222.546 35.8075 221.281 42.9815 218.811C46.2145 213.941 48.615 206.036 51.417 200.751C56.093 191.926 61.064 182.076 66.1735 173.546C73.313 161.631 82.3055 150.526 90.648 139.501C93.7395 135.421 98.2365 127.471 100.971 122.901C96.525 127.391 92.0055 131.566 87.379 135.871C87.762 125.076 87.2105 119.326 83.9415 109.141C81.858 107.936 79.4505 106.971 77.287 105.836C68.338 101.132 58.252 94.4578 51.415 86.8973C52.905 86.7383 57.1175 86.2428 58.326 86.5433C66.106 88.4798 74.426 94.2193 81.9215 97.9273C80.439 92.6728 78.6875 88.2248 76.744 83.1358L84.2715 81.6898C92.527 93.7478 93.156 105.546 98.054 117.051L103.356 115.316ZM180.452 117.646C177.363 119.406 163.896 127.746 162.927 130.406L163.702 130.486C175.78 129.946 187.045 126.491 195.826 117.941L195.861 117.491L195.518 117.521C190.498 117.656 185.474 117.696 180.452 117.646Z" fill="#3F3535"/>
<path d="M144.023 114.666C143.967 113.961 143.842 112.976 144.061 112.286C144.484 110.946 145.684 109.656 146.878 108.931C151.388 106.201 157.933 105.526 162.875 103.327C169.681 100.3 175.649 96.0798 182.849 93.8638C190.685 91.4528 214.044 97.7363 222.896 99.7503L223.178 100.934C221.785 102.707 218.522 104.396 216.474 105.566C204.255 99.8568 191.514 97.1828 178.198 101.53C172.852 103.275 167.086 107.306 161.685 109.366C156.277 111.431 150.774 112.036 145.551 114.201C144.644 114.576 145.106 114.421 144.023 114.666Z" fill="#8D9385"/>
<path d="M234.444 103.72L240.887 105.441C245.883 107.706 252.483 109.891 250.153 116.676C245.574 116.191 233.025 109.846 227.853 107.571C230.541 105.716 231.554 105.156 234.444 103.72Z" fill="#8D9385"/>
<path d="M595.755 149.491C612.505 149.386 632.45 147.756 648.295 153.266C672.275 161.611 675.806 192.011 663.276 211.336C659.421 217.286 655.721 219.876 649.786 223.671C634.401 232.311 625.256 229.986 608.026 230.381C604.056 230.471 595.466 230.556 592.041 229.806C591.201 228.531 591.53 229.216 591.63 227.281C593.33 225.091 597.256 225.356 599.406 223.321C601.046 221.771 601.02 219.311 601.17 217.206C601.69 209.821 603.14 161.331 600.135 157.506C598.34 155.216 594.001 154.716 592.036 152.086C591.576 151.471 591.771 151.241 591.856 150.541C593.651 149.326 593.285 149.711 595.755 149.491ZM645.826 218.121C667.191 196.271 659.106 154.431 623.831 155.071C621.836 155.126 619.841 155.216 617.846 155.346C616.851 155.666 613.335 156.826 613.26 158.191C612.34 175.746 612.821 193.661 613.026 211.276C613.046 212.816 613.696 220.026 614.526 220.996C621.296 228.931 639.186 223.596 645.826 218.121Z" fill="#F0EDE3"/>
<path d="M141.232 0.0108258C161.039 -0.201674 184.71 2.73334 204.182 7.12884C208.206 8.03734 212.607 9.19033 214.887 12.9038C215.332 16.9853 210.558 18.3988 207.336 17.5553C202.621 16.3213 198.06 14.0858 193.317 13.0318C171.434 8.19332 148.773 8.06132 126.835 12.6438C123.075 13.3923 119.028 14.3468 115.325 15.3738C108.05 17.3913 100.745 18.1423 93.3985 19.7588C95.9805 23.0848 98.455 23.9423 101.675 26.8883L87.444 28.6788C78.487 29.8278 46.4035 33.1968 39.8 40.6573C39.0045 41.5563 39.437 42.7853 39.682 43.7828C41.065 45.5798 42.7895 46.0753 44.9055 47.0368C48.7395 48.5453 51.504 49.4518 55.074 51.5633C45.0315 55.2498 33.757 55.7233 25.3895 62.3278C21.3255 65.5353 26.764 69.8208 21.0705 71.5313C12.46 74.1178 9.4465 75.5743 3.686 82.5888L2.665 82.4288C1.248 80.6458 0.631001 76.6898 1.939 74.7218C5.0295 70.0723 10.706 68.2333 15.769 66.6493C15.777 64.6853 15.802 62.7208 15.8445 60.7568C20.9885 53.5268 28.4295 51.8698 36.467 49.2473C36.153 49.0163 35.841 48.7828 35.531 48.5468C10.7685 29.8568 78.1205 22.5183 86.8 21.4518C86.605 15.8673 86.97 12.1503 92.496 9.66183C107.131 3.07033 125.509 0.765326 141.232 0.0108258Z" fill="#8D9385"/>
<path d="M791.651 142.916C796.816 142.836 806.956 146.186 801.146 152.606C796.056 158.651 787.571 145.841 782.391 151.796C778.036 156.806 778.911 169.076 778.916 175.376C786.396 175.521 793.871 175.596 801.351 175.606C801.336 172.176 801.43 169.296 801.625 165.866C803.96 163.171 807.666 158.486 811.411 160.046C813.726 163.171 812.925 171.336 812.87 175.686C816.62 175.611 824.035 175.056 826.485 178.306L826.31 179.386C823.175 182.321 816.94 181.796 812.815 181.796C812.985 191.761 811.745 210.401 814.05 219.921C815.335 225.251 823.781 222.461 827.076 223.666C828.141 225.001 827.881 224.271 827.961 225.911C826.106 228.926 822.121 230.026 818.911 231.056C809.816 233.981 803.771 229.796 801.766 220.761C800.811 210.126 801.34 192.921 801.365 181.696L778.865 181.586C779.23 195.101 778.391 210.251 779.406 223.531C782.711 225.391 788.531 225.706 789.406 228.926C787.321 231.216 778.076 230.356 774.891 230.311C771.691 230.266 762.205 230.806 759.82 229.486L759.836 228.291C761.636 225.716 767.54 225.306 767.75 221.301C767.98 216.876 767.81 212.351 767.795 207.911L767.81 181.816C764.83 181.706 760.301 182.226 759.041 179.131L759.591 178.026C762.271 176.006 764.46 175.951 767.82 175.616C768.465 168.801 768.431 164.361 771.596 158.076C776.126 149.086 781.476 144.146 791.651 142.916Z" fill="#F0EDE3"/>
<path d="M268.788 147.471C271.948 149.091 274.353 160.171 275.818 163.996C283.046 182.866 289.657 202.101 297.573 220.686C299.059 224.176 305.335 225.241 306.714 228.091C306.375 228.896 306.465 229.171 305.714 229.486C302.284 230.906 280.261 230.346 277.746 229.621L277.313 228.831C278.668 226.376 281.743 225.281 284.139 222.446C284.454 218.996 278.689 207.141 277.333 201.811L265.451 201.741C260.902 201.766 256.232 201.421 251.681 201.156C249.759 206.586 244.556 217.871 246.824 223.501C247.647 225.546 251.442 225.971 253.539 226.916L253.824 228.036C251.382 230.951 229.314 230.911 227.267 229.256C227.968 224.886 235.617 225.121 237.895 219.161C245.837 198.391 253.773 177.601 261.721 156.826C263.213 152.926 264.803 149.116 268.788 147.471ZM264.447 196.116C268.108 195.881 271.272 195.791 274.944 195.766C273.621 192.111 265.21 166.456 264.492 165.596C263.336 169.026 254.484 194.461 254.512 195.466C256.965 196.621 261.588 196.221 264.447 196.116Z" fill="#F0EDE3"/>
<path d="M386.752 174.346C413.646 172.606 401.889 203.751 405.331 219.086C406.126 222.631 412.746 222.786 414.056 224.511C413.716 225.926 412.995 227.541 411.75 228.341C403.96 233.351 399.223 230.981 394.164 225.141C384.696 233.301 372.93 234.801 366.091 222.681C360.706 203.251 380.751 201.236 394.533 195.161C393.413 185.966 389.8 175.811 378.988 182.566C377.395 185.566 375.525 192.171 372.589 193.421C366.811 195.876 364.946 188.391 367.951 184.471C372.511 178.516 379.843 175.971 386.752 174.346ZM380.318 221.766C385.767 224.106 388.948 222.931 394.047 220.246C394.116 217.281 394.535 203.131 393.979 201.031L393.661 200.746C385.923 204.581 369.552 210.966 380.318 221.766Z" fill="#F0EDE3"/>
<path d="M529.07 174.346C555.59 172.216 546.075 201.881 547.81 218.031C548.465 224.161 554.091 221.156 556.956 223.426C557.951 227.931 549.636 230.431 546.226 231.621C540.906 229.851 539.89 229.416 537.255 224.571C527.235 233.161 518.395 234.791 509.695 223.611C509.38 222.931 509.09 222.246 508.825 221.546C502.63 204.851 526.876 199.406 537.976 195.721C536.286 187.431 531.15 171.461 521.42 184.181C519.43 186.781 518.42 190.561 516.13 192.911C509.76 194.276 508.275 188.706 510.735 184.656C513.79 179.636 523.62 176.156 529.07 174.346ZM523.091 221.686C529.111 224.416 532.255 223.116 537.26 219.461C537.275 217.061 537.66 201.846 536.8 200.936C528.58 204.311 512.766 210.281 523.091 221.686Z" fill="#F0EDE3"/>
<path d="M337.893 174.346C346.276 173.521 361.896 176.696 351.461 186.946C350.353 188.031 343.929 182.771 340.375 181.666C322.855 175.741 317.9 203.241 325.445 213.901C333.858 225.791 343.77 223.506 354.015 216.681C355.384 216.041 354.852 216.236 356.458 216.166L357.13 216.866C357.283 218.176 356.725 219.656 356.034 220.671C343.743 238.946 315.709 232.791 311.448 210.906C307.641 191.346 319.752 178.246 337.893 174.346Z" fill="#F0EDE3"/>
<path d="M446.816 174.331C447.331 174.286 449.241 174.346 449.831 174.186C455.476 172.651 470.436 179.061 462.876 185.806C460.771 187.441 457.951 185.606 456.081 184.471C444.706 177.606 434.586 180.546 431.821 194.576C429.576 205.956 433.551 219.986 446.906 222.256C453.636 223.396 458.441 219.721 463.536 216.006C465.191 215.906 464.436 215.691 465.821 216.876C468.231 229.176 429.016 243.601 420.841 212.691C418.781 204.921 419.946 196.651 424.071 189.756C429.496 180.606 436.966 176.921 446.816 174.331Z" fill="#F0EDE3"/>
<path d="M697.461 173.281L698.07 173.856C698.52 177.846 698.371 182.406 698.346 186.461C699.226 185.126 700.116 183.801 701.016 182.481C703.531 178.811 706.765 174.606 711.445 173.926C715.825 173.291 720.22 175.431 720.445 180.241C720.525 182.186 719.775 184.076 718.38 185.431C713.33 190.321 708.135 180.331 703.365 186.546C699.56 191.631 698.385 199.091 698.44 205.341C698.48 210.551 697.05 221.286 701.195 224.846C704.26 225.991 706.53 225.591 708.365 228.546L708.036 229.366C704.941 230.941 681.306 231.076 679.901 228.966C680.681 227.901 685.575 224.406 687.185 223.036C688.32 214.471 687.596 195.026 687.471 185.436C684.896 183.611 681.94 182.371 679.07 181.016C683.68 177.596 691.836 175.236 697.461 173.281Z" fill="#F0EDE3"/>
<path d="M243.444 48.4383C249.918 47.7623 258.959 50.6263 265.596 52.0488C270.427 53.0438 275.286 53.8944 280.168 54.5989C292.364 56.3664 304.925 57.0959 317.139 59.0664C319.913 59.7869 325.106 60.3229 327.449 61.7889C331.08 64.0604 327.994 69.2753 326.771 71.3598C330.726 72.3918 365.906 79.6403 350.638 88.2868C344.182 89.4528 342.632 83.6718 337.065 81.6323C327.657 78.1848 318.598 76.2733 308.628 75.5213C310.552 73.6018 315.159 70.5243 315.393 68.2088C310.978 61.4783 245.979 61.2958 243.444 48.4383Z" fill="#8D9385"/>
<path d="M744.101 174.426L744.716 174.526C745.941 190.131 744.101 206.531 745.591 222.026C745.946 225.721 752.591 225.146 753.286 229.451L752.781 230.026C745.391 230.536 736.241 230.266 728.701 230.226C726.976 230.106 726.781 230.106 725.906 228.881L726.195 227.961C728.195 225.916 731.136 224.786 733.766 223.571C734.151 213.046 734.061 198.041 733.666 187.301C733.581 184.966 728.731 182.016 726.656 180.671L727.076 179.791C730.796 177.016 738.4 176.361 743.485 174.641L744.101 174.426Z" fill="#F0EDE3"/>
<path d="M490.471 174.256C490.941 174.246 491.296 174.421 491.791 174.576C494.086 179.811 491.156 211.976 492.336 219.656C493.386 226.506 500.705 224.906 500.695 229.411C497.7 230.626 481.03 230.231 476.76 230.221C475.015 230.251 474.041 230.516 472.961 229.141C473.601 227.131 480.481 223.606 480.726 222.306C481.966 215.691 481.535 190.241 480.68 184.996C478.235 183.241 475.846 181.406 473.516 179.496C477.971 177.761 485.676 175.731 490.471 174.256Z" fill="#F0EDE3"/>
<path d="M196.9 21.2638C201.874 20.5503 209.592 22.9959 215.665 23.2009C228.056 23.6194 240.931 21.8118 253.065 23.5228C257.663 24.1713 263.603 29.2963 268.263 30.9343C276.572 33.8543 285.591 34.9573 293.413 39.2558C295.332 40.3103 295.8 41.3054 296.216 43.2189C295.498 45.3304 295.679 44.7023 293.775 46.3783C287.639 45.9803 271.819 38.1564 265.053 36.3349C260.998 35.2434 254.464 31.7298 249.524 30.3573C240.776 27.9273 195.052 33.7398 193.922 23.8783C194.602 22.3213 195.398 22.1038 196.9 21.2638Z" fill="#8D9385"/>
<path d="M737.976 150.041C741.681 149.466 745.17 151.936 745.865 155.621C746.56 159.301 744.205 162.871 740.545 163.686C738.07 164.241 735.49 163.396 733.82 161.491C732.145 159.586 731.64 156.921 732.505 154.536C733.37 152.151 735.471 150.426 737.976 150.041Z" fill="#F0EDE3"/>
<path d="M483.9 150.531C487.44 149.336 491.275 151.256 492.44 154.806C493.605 158.356 491.65 162.176 488.09 163.311C484.575 164.431 480.815 162.506 479.665 158.996C478.515 155.491 480.405 151.711 483.9 150.531Z" fill="#F0EDE3"/>
<path d="M123.702 92.3003C129.769 87.5538 129.668 86.7079 136.971 85.0869L137.173 85.7948C135.563 88.2078 133.94 90.6118 132.305 93.0073C129.927 93.5008 126.175 92.7143 123.702 92.3003Z" fill="#3F3535" fill-opacity="0.717647"/>
</svg>
