<svg width="857" height="813" viewBox="0 0 857 813" fill="none" xmlns="http://www.w3.org/2000/svg">
<path d="M766.268 215.282C779.508 236.918 790.163 265.272 797.088 289.536C827.893 397.522 815.978 507.997 760.738 606.172C707.283 700.112 618.758 769.012 514.573 797.777C410.308 826.202 299.011 811.892 205.328 758.012C112.01 705.437 43.4737 617.862 14.8687 514.642C-14.3933 409.972 -0.0962791 297.919 54.5097 203.949C96.6502 130.095 161.159 71.5328 238.732 36.7093C257.508 28.1373 276.665 20.6083 296.622 15.2168C317.948 9.27533 339.695 4.96333 361.675 2.31733C429.478 -5.20667 509.553 5.61132 571.668 34.4783C579.688 38.2048 587.213 42.6713 594.873 47.0643C599.908 46.6433 607.333 46.0323 612.343 47.7023C620.098 50.2888 623.238 56.7768 631.948 59.5888C638.233 61.6178 645.938 60.8063 651.463 64.0663C652.618 64.7478 652.488 65.6963 652.478 66.6748C649.513 72.0838 639.738 74.4603 639.518 79.8898C640.163 80.8528 641.378 81.8358 642.433 81.8513C653.003 82.0058 664.088 76.1413 675.288 75.9563C682.463 75.0918 688.853 82.1063 695.128 82.8328C700.898 83.5013 708.178 79.8023 712.258 86.6763C715.438 92.0398 720.558 91.4473 726.428 91.5293C730.438 94.1103 747.443 110.101 744.958 114.692C741.038 116.753 729.738 115.399 724.788 115.073C722.103 116.954 720.828 118.175 718.438 120.405C727.723 122.956 740.493 125.493 749.048 128.149C754.563 126.122 761.943 122.635 767.503 125.355C770.208 126.68 773.218 129.898 776.183 131.048C782.973 133.683 793.683 131.906 797.543 139.813C798.103 140.96 797.573 141.577 797.113 142.404C793.083 145.062 787.158 143.432 785.423 146.927C786.973 155.357 799.953 152.081 804.658 152.776C808.078 153.281 821.203 160.5 822.323 163.475C819.518 165.362 816.483 166.472 814.148 168.059C830.953 177.221 825.603 174.203 842.533 175.495C844.123 178.289 845.163 180.526 847.118 183.117C849.963 186.879 854.278 189.694 856.303 193.723C850.088 197.726 845.288 197.461 838.033 198.038C825.328 207.57 832.643 201.386 819.158 201.761C815.943 204.101 814.238 205.854 811.388 208.674C803.078 207.607 799.893 203.943 792.953 202.07C783.013 207.429 776.603 210.628 766.268 215.282ZM762.703 208.084C768.448 209.186 779.358 202.646 783.983 199.522C771.068 191.828 770.308 195.767 756.713 195.443C758.923 199.626 760.203 204.414 762.573 207.892L762.703 208.084Z" fill="#86855F"/>
<path d="M766.268 215.282C779.508 236.918 790.163 265.272 797.088 289.536C827.893 397.522 815.978 507.997 760.738 606.172C707.283 700.112 618.758 769.012 514.573 797.777C410.308 826.202 299.011 811.892 205.328 758.012C112.01 705.437 43.4737 617.862 14.8687 514.642C-14.3933 409.972 -0.0962791 297.919 54.5097 203.949C96.6502 130.095 161.159 71.5328 238.732 36.7093C257.508 28.1373 276.665 20.6083 296.622 15.2168C317.948 9.27533 339.695 4.96333 361.675 2.31733C429.478 -5.20667 509.553 5.61132 571.668 34.4783C579.688 38.2048 587.213 42.6713 594.873 47.0643C588.498 49.3243 579.368 50.3203 573.268 46.9298C571.093 43.3988 569.778 40.8823 566.613 38.1613C560.733 39.7928 555.013 43.2188 549.103 43.8773C543.053 44.5518 535.703 41.8513 529.748 40.6083C521.708 38.9313 513.773 39.0108 505.703 40.4628C492.433 42.3143 484.418 54.5388 473.318 57.0368C459.748 60.0893 456.608 48.3653 444.663 63.4873C436.483 65.3868 427.198 65.2718 421.743 71.3208C419.983 73.2673 418.838 75.3363 417.243 77.1398C404.548 71.7853 396.933 70.0053 383.989 66.4898C346.311 56.2583 308.51 59.2928 272.245 73.6863C231.061 90.0323 201.455 120.927 184.416 161.654C172.415 190.339 167.269 221.766 151.312 248.889C125.159 293.278 72.6222 318.08 61.8152 371.887C55.1892 404.877 69.5242 433.707 80.9502 463.632C88.7732 484.122 92.9017 496.002 85.6462 517.372C74.1847 538.572 64.3422 560.447 71.6712 584.587C79.6052 610.722 109.332 651.672 129.277 669.372C138.882 679.157 155.537 695.647 167.034 702.092C212.84 680.867 250.851 699.417 296.521 703.382C325.006 705.942 353.716 702.877 381.019 694.362C409.243 685.627 433.453 671.592 455.848 652.512C461.448 647.742 468.558 642.072 471.983 635.577L472.708 634.212C478.718 630.682 486.008 621.477 490.543 616.067C508.758 594.332 529.708 576.982 554.278 562.957C554.563 562.797 555.558 561.112 555.753 560.967C563.718 554.992 580.193 549.077 589.448 547.617C591.338 548.842 594.463 547.482 596.568 546.687C618.923 538.227 646.698 535.357 668.593 526.617C658.063 511.132 653.653 491.867 652.833 473.407C652.503 465.957 652.268 456.882 650.898 449.707C648.368 436.482 642.308 424.187 643.413 410.332C643.908 397.737 647.408 391.512 650.543 379.632C652.213 373.293 649.243 369.621 645.948 364.515C643.503 370.333 637.768 384.035 633.088 388.569C632.518 389.122 632.308 388.867 631.428 388.679C628.838 385.97 626.433 378.603 625.348 374.833C620.373 356.429 618.273 330.614 624.253 312.196C628.818 298.133 639.488 282.018 645.688 268.324C653.598 250.845 670.093 245.072 687.493 240.091C696.123 237.021 706.863 233.215 714.903 228.84C720.478 225.81 726.658 218.852 733.568 217.3C743.663 215.033 755.883 215.352 766.268 215.282Z" fill="#E5E3D0"/>
<path d="M645.948 364.515C643.503 370.333 637.768 384.035 633.088 388.569C632.518 389.122 632.308 388.867 631.428 388.679C628.838 385.97 626.433 378.603 625.348 374.833C620.373 356.429 618.273 330.614 624.253 312.196C628.818 298.133 639.488 282.018 645.688 268.324C653.598 250.845 670.093 245.072 687.493 240.091C693.373 263.113 694.088 287.195 704.993 309.974C717.263 335.611 734.808 354.071 749.223 378.913C758.243 394.347 765.008 410.997 769.308 428.352C779.428 470.797 774.098 522.342 751.828 560.227C714.153 624.322 636.593 611.482 586.383 651.172C549.133 680.612 545.998 731.612 500.738 762.212C489.793 769.697 477.618 775.207 464.778 778.502C402.008 794.152 355.065 761.217 297.815 743.717C257.709 731.457 215.696 732.912 178.337 710.192C174.393 707.747 170.617 705.042 167.034 702.092C212.84 680.867 250.851 699.417 296.521 703.382C325.006 705.942 353.716 702.877 381.019 694.362C409.243 685.627 433.453 671.592 455.848 652.512C461.448 647.742 468.558 642.072 471.983 635.577L472.708 634.212C478.718 630.682 486.008 621.477 490.543 616.067C508.758 594.332 529.708 576.982 554.278 562.957C554.563 562.797 555.558 561.112 555.753 560.967C563.718 554.992 580.193 549.077 589.448 547.617C591.338 548.842 594.463 547.482 596.568 546.687C618.923 538.227 646.698 535.357 668.593 526.617C658.063 511.132 653.653 491.867 652.833 473.407C652.503 465.957 652.268 456.882 650.898 449.707C648.368 436.482 642.308 424.187 643.413 410.332C643.908 397.737 647.408 391.512 650.543 379.632C652.213 373.293 649.243 369.621 645.948 364.515Z" fill="#86855F"/>
<path d="M676.898 636.017C700.498 633.142 702.193 653.672 685.788 665.402C668.388 677.837 647.638 686.052 630.213 698.302C614.053 709.672 603.243 725.397 584.743 734.237C577.833 738.007 569.838 735.002 566.103 728.222C565.393 714.222 574.303 698.582 581.983 687.267C602.583 656.912 641.543 641.857 676.898 636.017Z" fill="#86855F"/>
<path d="M138.183 168.916C142.718 168.62 147.954 169.019 149.556 174.045C154.463 189.444 143.131 218.696 135.718 232.366C123.595 254.72 101.06 282.367 78.4278 293.474C74.4258 293.981 73.6659 293.658 69.8144 292.446C61.8724 283.103 66.3389 269.13 69.6354 258.614C78.0569 231.754 94.2853 208.192 113.956 188.325C121.631 180.573 128.277 173.906 138.183 168.916Z" fill="#86855F"/>
<path d="M444.663 63.4873C456.608 48.3653 459.748 60.0893 473.318 57.0368C484.418 54.5388 492.433 42.3143 505.703 40.4628C513.773 39.0108 521.708 38.9313 529.748 40.6083C535.703 41.8513 543.053 44.5518 549.103 43.8773C555.013 43.2188 560.733 39.7928 566.613 38.1613C569.778 40.8823 571.093 43.3988 573.268 46.9298C579.368 50.3203 588.498 49.3243 594.873 47.0643C599.908 46.6433 607.333 46.0323 612.343 47.7023C620.098 50.2888 623.238 56.7768 631.948 59.5888C638.233 61.6178 645.938 60.8063 651.463 64.0663C652.618 64.7478 652.488 65.6963 652.478 66.6748C649.513 72.0838 639.738 74.4603 639.518 79.8898C640.163 80.8528 641.378 81.8358 642.433 81.8513C653.003 82.0058 664.088 76.1413 675.288 75.9563C682.463 75.0918 688.853 82.1063 695.128 82.8328C700.898 83.5013 708.178 79.8023 712.258 86.6763C715.438 92.0398 720.558 91.4473 726.428 91.5293C730.438 94.1103 747.443 110.101 744.958 114.692C741.038 116.753 729.738 115.399 724.788 115.073C722.103 116.954 720.828 118.175 718.438 120.405C727.723 122.956 740.493 125.493 749.048 128.149C754.563 126.122 761.943 122.635 767.503 125.355C770.208 126.68 773.218 129.898 776.183 131.048C782.973 133.683 793.683 131.906 797.543 139.813C798.103 140.96 797.573 141.577 797.113 142.404C793.083 145.062 787.158 143.432 785.423 146.927C786.973 155.357 799.953 152.081 804.658 152.776C808.078 153.281 821.203 160.5 822.323 163.475C819.518 165.362 816.483 166.472 814.148 168.059C830.953 177.221 825.603 174.203 842.533 175.495C844.123 178.289 845.163 180.526 847.118 183.117C849.963 186.879 854.278 189.694 856.303 193.723C850.088 197.726 845.288 197.461 838.033 198.038C825.328 207.57 832.643 201.386 819.158 201.761C815.943 204.101 814.238 205.854 811.388 208.674C803.078 207.607 799.893 203.943 792.953 202.07C783.013 207.429 776.603 210.628 766.268 215.282C755.883 215.352 743.663 215.033 733.568 217.3C726.658 218.852 720.478 225.81 714.903 228.84C706.863 233.215 696.123 237.021 687.493 240.091C670.093 245.072 653.598 250.845 645.688 268.324C639.488 282.018 628.818 298.133 624.253 312.196C618.273 330.614 620.373 356.429 625.348 374.833C626.433 378.603 628.838 385.97 631.428 388.679C632.308 388.867 632.518 389.122 633.088 388.569C637.768 384.035 643.503 370.333 645.948 364.515C649.243 369.621 652.213 373.293 650.543 379.632C647.408 391.512 643.908 397.737 643.413 410.332C642.308 424.187 648.368 436.482 650.898 449.707C652.268 456.882 652.503 465.957 652.833 473.407C653.653 491.867 658.063 511.132 668.593 526.617C646.698 535.357 618.923 538.227 596.568 546.687C594.463 547.482 591.338 548.842 589.448 547.617C593.963 543.682 596.143 539.192 598.918 533.962C606.958 520.722 605.753 501.617 606.523 486.617C607.153 474.382 608.588 461.377 608.033 449.192C607.773 443.447 606.893 437.742 605.408 432.182C602.883 422.677 598.578 414.067 595.423 404.862C591.823 394.372 588.333 380.45 583.423 370.606C574.273 352.274 544.523 328.296 527.128 318.16C528.318 316.893 531.433 313.79 532.883 313.905C547.153 315.039 572.508 338.045 584.013 345.628C577.473 327.434 560.083 300.558 544.533 289.29C539.608 285.723 532.598 282.68 527.998 278.911C521.663 273.717 515.963 266.43 509.493 261.341C496.768 251.323 479.743 251.861 465.678 247.124C456.113 243.903 448.363 234.704 436.793 232.898C424.833 231.032 417.833 233.508 406.293 234.875C392.005 236.567 382.858 228.837 372.572 220.455C358.849 222.523 354.388 219.446 341.26 216.857C333.945 215.415 315.954 220.325 311.431 211.812C311.718 204.198 329.765 204.063 332.863 199.257C336.081 194.262 312.077 185.743 308.167 183.952C302.362 186.279 294.6 190.041 288.73 191.382C280.944 193.161 274.87 187.425 269.011 183.237C263.955 183.569 254.04 185.365 250.081 182.42C244.774 178.473 252.539 173.077 254.341 169.978C255.713 167.618 256.228 161.655 257.962 159.994C265.011 153.247 279.353 161.143 287.388 154.717C288.857 153.478 288.989 153.486 289.228 152.005C287.684 150.028 283.566 150.549 280.036 147.345C277.831 142.11 289.873 139.197 293.56 137.176C299.003 134.194 299.598 130.749 305.028 127.402C312.075 126.969 328.455 130.999 332.563 124.216C332.122 120.474 326.297 120.708 322.693 117.023C319.82 109.112 343.084 104.387 348.504 103.057C348.605 100.398 348.207 95.1898 351.655 94.5498C365.102 92.0558 379.342 95.6423 392.971 92.8043C397.538 91.8528 402.283 88.6938 406.348 86.3368C424.143 85.6963 432.353 100.766 450.123 87.7903C445.208 86.3978 439.428 85.2013 435.498 81.9958C428.208 83.5433 422.068 83.0728 417.243 77.1398C418.838 75.3363 419.983 73.2673 421.743 71.3208C427.198 65.2718 436.483 65.3868 444.663 63.4873ZM762.703 208.084C768.448 209.186 779.358 202.646 783.983 199.522C771.068 191.828 770.308 195.767 756.713 195.443C758.923 199.626 760.203 204.414 762.573 207.892L762.703 208.084Z" fill="#302B24"/>
<path d="M435.498 81.9958C440.063 81.8108 446.208 81.3833 450.073 84.0738C450.948 85.5618 451.233 86.1543 450.123 87.7903C445.208 86.3978 439.428 85.2013 435.498 81.9958Z" fill="#E5E3D0"/>
<path d="M644.093 170.655C644.753 170.923 645.418 171.187 646.083 171.448C655.268 175.038 658.333 174.816 667.228 170.944C669.788 176.761 673.533 183.674 676.383 189.721C668.693 188.618 663.038 185.756 655.733 184.378C650.068 187.164 648.378 189.007 644.748 193.79C637.928 193.719 635.133 194.015 628.993 197.551C625.968 199.294 619.983 204.017 619.163 207.368C621.743 210.48 631.608 210.769 636.188 211.493C640.098 217.255 645.158 227.815 644.303 235.065C643.613 239.35 640.848 243.655 639.193 247.519C631.828 264.749 621.063 279.053 610.633 294.404C606.938 299.846 603.528 307.679 600.993 313.921C595.033 308.646 589.183 300.594 585.518 293.575C565.798 255.765 602.533 229.065 615.253 197.461C622.438 179.606 627.618 178.661 644.093 170.655Z" fill="#86855F"/>
<path d="M527.358 151.795C528.363 152.866 530.623 156.817 531.393 158.2C534.403 163.524 538.048 168.914 542.708 172.908C549.293 178.559 558.018 180.805 564.723 186.235C568.098 188.97 571.258 192.624 573.428 196.356C579.618 207.016 581.898 221.393 575.723 232.571C572.618 238.196 568.383 243.249 565.468 248.995C562.333 255.204 560.888 262.108 559.173 268.83C555.208 267.206 553.378 266.304 549.658 264.173C530.803 252.768 520.183 229.141 526.683 207.953C527.183 206.317 527.478 203.799 526.508 202.354C520.763 202.319 519.383 208.708 517.888 213.179C507.193 199.791 502.593 195.39 506.948 177.102C507.643 174.201 508.028 166.661 507.568 163.538C515.408 159.386 520.138 156.675 527.358 151.795Z" fill="#86855F"/>
<path d="M414.768 168.815C419.943 169.043 433.463 170.205 437.503 173.326C443.118 177.664 447.258 183.12 453.928 186.605C461.273 190.441 468.948 192.221 476.563 195.337C486.558 199.769 494.938 210.563 502.783 218.056C506.253 221.361 511.998 238.023 511.768 241.652L510.878 241.857C506.278 240.402 499.743 238.471 495.233 237.519C478.333 233.954 473.393 234.782 459.028 225.9C437.403 212.529 438.963 200.105 424.023 182.663C420.818 178.925 413.343 174.396 412.673 171.358C413.233 169.613 413.058 170.158 414.768 168.815Z" fill="#86855F"/>
<path d="M377.507 171.378C382.705 171.843 396.933 177.272 402.023 179.074C417.233 184.461 428.263 205.817 433.903 220.627C407.573 224.421 405.883 230.763 382.167 215.813C389.114 215.281 398.278 214.819 404.993 213.79C408.268 213.095 411.703 212.705 412.523 209.056C411.198 204.214 398.463 195.343 393.516 195.433C386.636 195.558 385.489 192.066 379.853 189.146C369.86 183.969 363.555 190.394 355.219 194.438C349.296 197.009 336.246 189.065 330.663 185.818C341.625 180.047 346.192 185.308 356.518 182.325C363.277 180.372 368.803 174.212 376.83 171.591L377.507 171.378Z" fill="#86855F"/>
<path d="M609.308 156.589C610.428 156.343 609.838 156.348 611.078 156.666C611.528 159.714 609.953 168.192 609.678 171.747C608.428 187.895 605.123 197.639 593.528 209.06L591.718 202.729C582.483 180.915 578.343 179.207 590.753 157.439C597.488 157.352 602.598 157.169 609.308 156.589Z" fill="#86855F"/>
<path d="M667.228 170.944C676.233 166.776 677.888 168.048 687.458 169.058C691.013 169.433 698.108 163.874 701.043 167.843C700.568 169.89 698.253 172.568 696.818 174.113C691.928 175.011 682.848 175.629 682.368 181.726C684.903 188.333 697.388 188.916 703.358 189.442C701.718 193.081 701.043 194.809 699.998 198.613C697.193 208.805 697.268 221.729 686.253 226.715C684.278 221.641 683.218 214.33 681.768 208.732C687.788 207.881 691.693 208.327 692.448 201.775C686.683 194.328 683.848 194.584 677.013 190.134L676.383 189.721C673.533 183.674 669.788 176.761 667.228 170.944Z" fill="#E5E3D0"/>
<path d="M737.883 186.41L739.288 186.887L739.553 187.807C738.353 191.038 735.483 193.986 733.308 196.668C724.368 207.671 717.468 214.445 704.693 220.875C702.503 215.056 707.013 192.635 713.538 189.263C717.373 187.282 726.423 187.803 730.553 189.11L737.883 186.41Z" fill="#E5E3D0"/>
<path d="M543.023 144.945C546.433 145.056 556.038 146.597 559.753 147.115C563.253 153.91 568.338 169.295 570.553 176.797C568.823 175.79 567.058 175.048 565.233 174.225C563.583 173.585 561.948 172.922 560.318 172.236C545.383 165.898 541.418 162.288 535.518 147.518C538.013 146.553 540.478 145.773 543.023 144.945Z" fill="#86855F"/>
<path d="M471.613 156.196C481.693 157.713 487.943 160.565 497.293 164.449C497.043 173.058 495.638 177.849 493.633 186.156C493.243 187.294 493.238 187.354 492.598 188.363C487.838 189.017 479.993 179.686 478.078 175.79C475.323 170.177 472.028 162.454 471.613 156.196Z" fill="#86855F"/>
<path d="M654.708 226.967C661.708 215.947 669.613 212.344 681.768 208.732C683.218 214.33 684.278 221.641 686.253 226.715C675.518 229.599 665.048 232.171 654.598 236.047C654.548 233.053 654.653 229.968 654.708 226.967Z" fill="#86855F"/>
<path d="M461.243 158.248C464.153 160.455 467.948 176.771 468.288 180.913C463.828 180.011 462.303 179.623 458.018 178.049C453.163 175.445 450.578 172.7 447.208 168.522C452.863 165.051 456.308 162.656 461.243 158.248Z" fill="#86855F"/>
<path d="M735.443 207.826C741.328 201.674 744.073 198.759 751.183 193.828C752.943 194.276 754.943 194.922 756.713 195.443C758.923 199.626 760.203 204.414 762.573 207.892L762.703 208.084C753.633 208.229 744.518 207.977 735.443 207.826Z" fill="#E5E3D0"/>
<path d="M575.118 143.567C577.863 144.545 582.908 149.887 585.233 152.129L577.988 162.689L577.058 163.095C572.353 161.472 569.643 149.147 568.473 144.549C570.653 144.289 572.938 143.9 575.118 143.567Z" fill="#86855F"/>
<path d="M621.228 155.299C625.923 155.455 635.963 155.995 636.513 161.8C635.268 165.021 632.863 165.576 629.713 167.044C626.373 168.532 622.593 170.055 619.608 172.112L621.228 155.299Z" fill="#86855F"/>
<path d="M646.193 212.995C648.668 213.104 653.708 213.003 655.563 214.122L655.668 214.878L654.223 216.342L649.668 219.889C648.488 217.788 647.278 215.186 646.193 212.995Z" fill="#86855F"/>
<path d="M367.18 266.796C372.526 267.773 384.119 273.141 388.137 270.664C394.739 266.594 384.458 259.584 386.226 254.924C389.241 252.648 395.973 252.45 399.058 254.387C402.058 259.324 402.963 265.637 405.718 270.926C407.358 270.699 412.933 269.471 414.443 271.086C418.613 275.549 416.733 275.992 420.918 282.363C425.738 289.696 448.283 303.057 443.403 313.314C443.098 313.95 433.758 314.767 432.453 314.595C429.808 314.5 427.253 312.085 425.378 310.57C419.093 309.507 412.833 310.416 406.573 309.69C402.923 309.266 399.413 307.555 395.768 307.316C394.32 307.221 393.302 307.587 392.102 308.398C382.234 315.075 373.172 362.833 369.752 375.844C366.979 386.398 364.015 397.292 359.857 407.397C357.44 413.267 354.613 419.172 351.613 424.772C348.188 431.157 340.334 442.152 339.196 448.762C336.796 462.717 350.026 468.327 343.375 485.932C358.292 490.982 373.368 495.597 388.167 500.587C422.583 512.182 455.633 522.702 492.238 524.142C523.268 525.367 554.583 521.207 584.973 528.862C588.533 529.757 595.918 531.767 598.918 533.962C596.143 539.192 593.963 543.682 589.448 547.617C580.193 549.077 563.718 554.992 555.753 560.967C555.558 561.112 554.563 562.797 554.278 562.957C529.708 576.982 508.758 594.332 490.543 616.067C486.008 621.477 478.718 630.682 472.708 634.212L471.983 635.577C468.558 642.072 461.448 647.742 455.848 652.512C433.453 671.592 409.243 685.627 381.019 694.362C353.716 702.877 325.006 705.942 296.521 703.382C250.851 699.417 212.84 680.867 167.034 702.092C155.537 695.647 138.882 679.157 129.277 669.372C109.332 651.672 79.6052 610.722 71.6712 584.587C64.3422 560.447 74.1847 538.572 85.6462 517.372C88.1247 517.482 98.4539 512.637 101.7 511.432C111.661 507.752 123.892 502.852 133.655 499.267C144.885 495.137 178.574 481.072 188.538 480.437L189.366 481.222C192.512 469.072 195.013 467.127 201.541 457.232C217.672 432.777 246.485 438.312 269.091 422.792C279.215 415.842 282.033 407.107 290.449 398.832C298.109 392.787 309.374 389.83 316.452 381.975C342.172 353.432 349.051 310.538 373.612 281.312C370.191 276.381 368.349 272.838 367.18 266.796Z" fill="#302B24"/>
<path d="M343.375 485.932C358.292 490.982 373.368 495.597 388.167 500.587C422.583 512.182 455.633 522.702 492.238 524.142C523.268 525.367 554.583 521.207 584.973 528.862C588.533 529.757 595.918 531.767 598.918 533.962C596.143 539.192 593.963 543.682 589.448 547.617C580.193 549.077 563.718 554.992 555.753 560.967C555.558 561.112 554.563 562.797 554.278 562.957C529.708 576.982 508.758 594.332 490.543 616.067C486.008 621.477 478.718 630.682 472.708 634.212L471.983 635.577C454.598 643.062 439.503 647.767 421.058 652.287C413.178 654.217 405.498 656.802 397.413 657.837C410.843 647.042 413.473 647.147 429.673 644.037C411.503 640.282 407.723 642.047 390.701 650.567L391.155 650.082C407.278 632.997 419.013 629.117 442.018 628.437C409.623 619.822 387.563 635.117 369.204 661.052C369.507 660.082 369.84 659.047 370.275 658.132C385.333 626.487 401.018 613.962 432.328 601.917C400.543 605.817 389.634 614.712 368.837 637.972C376.712 621.072 385.644 609.572 398.943 596.722C402.463 596.697 410.003 596.792 412.943 594.637C414.048 593.822 413.843 592.702 413.918 591.442C416.178 588.452 422.143 591.697 423.868 588.472C423.678 586.602 422.718 585.777 421.513 584.282C425.308 584.477 432.013 585.617 434.328 582.277C433.798 577.762 434.948 578.347 439.123 577.662C441.468 577.277 447.333 576.497 447.368 573.277C442.993 570.037 434.123 573.482 432.048 572.072C431.748 570.592 431.733 569.967 430.863 568.712C426.983 567.877 424.233 572.732 420.888 572.627C420.288 571.467 420.208 571.367 419.378 570.352C414.353 569.577 413.508 574.722 409.083 576.657C399.953 572.697 399.583 586.497 396.383 590.332C386.775 601.847 377.53 612.782 369.433 625.502C366.271 630.467 362.956 641.032 359.969 644.742L359.732 644.352C363.975 625.887 373.376 611.097 381.329 594.682C367.871 609.402 361.92 617.427 353.762 635.487L352.876 633.712C352.534 631.527 357.338 619.897 358.587 616.612C367.253 593.812 379.406 571.992 395.938 553.917C397.793 551.887 410.263 539.187 410.518 538.082C405.053 533.402 392.777 544.052 389.84 548.562C376.443 569.112 362.307 590.487 352.888 613.202C348.238 624.417 345.412 634.882 341.612 645.872L341.07 645.787C341.239 641.637 342.324 635.627 342.712 631.317C345.225 603.462 353.939 582.812 364.314 557.317C341.397 588.057 332.262 614.017 328.101 651.752C326.135 634.677 323.87 618.257 324.327 601.027C324.001 596.057 326.295 590.127 326.11 585.327C325.365 565.917 326.361 547.137 330.392 528.082C331.623 522.267 332.095 514.637 334.003 509.012C336.686 501.112 340.714 494.027 343.375 485.932Z" fill="#93A17D"/>
<path d="M85.6462 517.372C88.1247 517.482 98.4539 512.637 101.7 511.432C111.661 507.752 123.892 502.852 133.655 499.267C144.885 495.137 178.574 481.072 188.538 480.437L189.366 481.222C185.163 499.352 187.299 514.727 186.209 532.987C185.699 541.537 170.685 557.887 176.025 565.567L176.843 565.597L177.455 564.867C178.202 563.992 177.853 564.272 178.552 563.822C178.03 576.552 173.942 580.432 182.413 592.462C183.521 578.607 187.705 571.792 190.436 558.757C191.131 555.442 188.768 548.327 189.114 545.057C189.751 539.027 190.567 532.992 191.204 526.932C192.169 517.742 192.389 507.477 193.7 498.432L194.311 498.572C196.801 510.927 202.037 529.547 202.281 541.247C202.592 556.167 194.577 560.902 193.256 571.672C192.283 579.602 194.624 587.552 194.962 595.457C195.307 603.537 194.468 647.482 190.312 652.927C189.832 653.557 189.773 653.562 189.237 653.997C185.752 652.842 186.055 646.787 185.775 643.487C184.264 625.642 178.735 612.252 170.49 596.407C174.319 614.227 176.516 621.747 177.237 640.117C177.113 641.912 177.249 643.382 176.239 644.797C170.23 605.922 157.931 569.007 126.929 542.867C143.585 568.357 153.487 586.802 159.739 617.057C161.44 625.292 163.061 635.497 164.885 643.447C161.072 635.442 157.711 625.982 153.722 618.062C145.274 601.292 132.215 578.722 114.546 570.917C112.995 570.232 111.884 570.182 110.334 570.702L110.003 571.527C112.364 576.162 125.756 585.787 129.714 590.157C139.365 600.812 148.377 616.882 153.962 630.007C140.112 614.237 135.653 608.762 115.78 601.502C140.644 621.777 145.304 630.312 155.347 659.462C147.106 645.677 139.74 633.662 123.78 628.457C119.062 626.917 114.839 626.017 110.188 624.682C128.735 635.482 138.136 642.142 146.212 662.737C140.233 664.697 134.965 666.507 129.277 669.372C109.332 651.672 79.6052 610.722 71.6712 584.587C64.3422 560.447 74.1847 538.572 85.6462 517.372Z" fill="#93A17D"/>
<path d="M352.876 633.712L353.762 635.487C352.816 638.527 352.277 640.622 350.71 643.407L350.361 643.442C351.058 640.152 351.982 636.952 352.876 633.712Z" fill="#7F7E75"/>
<path d="M177.237 640.117C177.513 643.532 177.668 644.847 177.287 648.272L176.905 648.342C176.58 646.957 176.428 646.242 176.239 644.797C177.249 643.382 177.113 641.912 177.237 640.117Z" fill="#7F7E75"/>
<path d="M341.07 645.787L341.612 645.872C341.673 647.297 341.757 647.252 341.181 648.527L340.765 648.002L341.07 645.787Z" fill="#565047"/>
<path d="M193.7 498.432L194.104 496.997C194.645 497.792 194.448 497.337 194.311 498.572L193.7 498.432Z" fill="#565047"/>
<path d="M245.968 520.772C257.134 524.542 266.882 527.437 278.658 524.277C281.347 523.552 291.658 520.357 293.545 521.557C296.29 529.907 290.08 563.897 289.245 574.642C288.556 583.507 289.042 593.392 288.573 602.037C287.774 616.732 285.241 635.277 281.791 649.552C282.794 652.397 284.607 656.802 284.724 659.707C284.956 665.477 278.912 663.967 275.623 663.492C273.973 637.197 268.971 614.382 252.099 593.232C259.438 611.062 264.195 624.237 265.395 643.907L265.829 646.957L265.112 648.112L264.246 645.662C261.982 634.997 253.753 625.687 245.531 619.062C255.662 634.947 257.251 642.187 259.723 660.247C254.117 659.232 248.765 658.752 246.184 652.567C243.396 645.882 241.57 638.427 239.001 631.672C223.725 591.482 232.553 559.462 245.968 520.772Z" fill="#93A17D"/>
<path d="M264.246 645.662L265.395 643.907L265.829 646.957L265.112 648.112L264.246 645.662Z" fill="#86855F"/>
<path d="M308.727 558.122L309.023 557.612C309.714 559.287 309.596 561.267 309.489 563.092C309.521 566.947 309.459 577.347 310.003 580.972C311.974 594.102 313.429 605.047 314.362 618.357C315.497 630.117 314.342 642.077 315.704 653.777C316.228 658.277 322.197 661.787 319.022 666.307C315.353 668.312 304.427 666.772 299.849 666.332C288.423 645.762 299.097 603.997 304.938 581.997C306.938 574.467 306.852 565.707 308.727 558.122Z" fill="#93A17D"/>
<path d="M308.727 558.122L309.023 557.612C309.714 559.287 309.596 561.267 309.489 563.092C309.337 560.997 309.183 560.192 308.727 558.122Z" fill="#7F7E75"/>
<path d="M211.006 586.627C220.021 591.812 230.505 643.762 232.856 655.497C230.358 655.092 227.956 654.902 225.441 654.672C218.666 654.012 211.404 653.712 204.568 653.322C201.094 635.727 205.438 603.377 211.006 586.627Z" fill="#93A17D"/>
<path d="M265.829 646.957C266.278 648.562 266.392 648.627 266.215 650.337L265.72 650.182C265.577 649.712 265.2 648.557 265.112 648.112L265.829 646.957Z" fill="#565047"/>
<path d="M230.457 222.153C260.855 219.127 287.944 241.333 290.939 271.735C293.935 302.136 271.7 329.202 241.296 332.167C210.935 335.127 183.916 312.931 180.925 282.574C177.934 252.216 200.102 225.175 230.457 222.153Z" fill="#E5E3D0"/>
</svg>
