<svg width="857" height="814" viewBox="0 0 857 814" fill="none" xmlns="http://www.w3.org/2000/svg">
<path d="M766.293 216.326C785.203 245.938 796.623 281.778 804.308 315.893C823.993 401.283 815.418 490.758 779.878 570.858C735.098 671.123 652.173 749.378 549.483 788.273C520.473 799.233 490.248 806.663 459.463 810.418C441.258 812.813 429.268 812.743 411.283 813.163C222.394 817.698 47.4268 678.518 8.88584 493.458C-8.35766 410.663 -0.731663 321.314 33.7508 243.82C87.2098 123.679 195.24 35.5059 324.026 8.18295C400.523 -7.25655 479.828 -0.759554 552.798 26.9259C563.563 30.9614 574.478 35.2509 584.518 40.8954C588.573 43.1764 592.803 45.4794 597.048 47.3899C614.593 46.9824 614.963 48.5104 628.113 59.2444C631.513 62.0184 653.413 61.3594 653.918 67.3194C650.768 73.3629 638.693 73.329 640.293 82.3365L641.053 83.2645C646.163 83.5505 655.443 80.1249 660.578 78.9389C666.293 77.6199 674.348 77.0139 680.078 77.2704C684.573 77.4719 690.048 83.161 695.303 83.8465C698.973 84.3255 707.983 81.2224 709.493 83.9339C711.838 88.1424 711.243 90.1745 717.513 91.6705C720.053 92.2775 724.783 92.5189 727.673 92.7424C733.723 96.5889 733.003 98.0835 737.443 103.622C739.578 106.284 745.383 109.101 746.508 113.146C746.928 114.667 746.398 114.93 745.643 115.865C738.703 118.988 730.553 115.126 723.763 116.736C723.058 116.902 719.998 120.491 719.233 121.424C728.983 123.33 738.168 126.829 747.778 128.453C751.983 129.163 759.908 123.407 764.923 125.102C770.278 126.148 772.758 130.42 776.363 131.972C783.713 135.137 791.168 131.743 797.538 139.873C798.248 140.779 798.513 141.51 798.883 142.596C797.538 147.147 788.748 143.128 785.368 146.811C785.378 149.318 786.883 149.418 787.783 150.971C791.978 158.21 804.318 149.925 808.208 154.248C811.663 158.089 820.888 160.912 822.998 163.106C822.858 165.949 817.098 167.513 814.813 168.615C818.578 170.841 824.553 175.271 827.633 175.947C837.143 178.036 844.243 170.827 846.513 183.971C847.063 187.147 855.203 189.585 856.383 194.141C855.553 195.819 855.023 196.037 853.033 196.752C848.463 198.397 843.113 198.333 838.538 199.077C836.183 199.46 834.138 204.86 830.628 204.822C827.153 204.785 823.373 201.706 820.528 202.51C813.358 204.538 815.033 213.116 804.063 207.826C798.913 205.34 798.483 204.274 792.693 202.991C787.968 204.667 784.383 208.088 780.078 210.744C776.558 212.913 769.098 214.177 766.293 216.326Z" fill="#EBE6D8"/>
<path d="M308.605 184.608C316.276 186.737 329.387 194.573 336.181 198.821C334.688 199.872 329.415 203.7 328.154 204.187C323.797 205.872 313.371 205.383 311.817 211.471C312.958 221.482 337.418 215.592 344.706 217.685C355.138 220.683 361.266 224.588 372.211 220.945C383.741 229.498 393.728 237.663 408.838 234.97C424.943 231.728 441.068 230.21 454.683 241.188C456.778 242.877 462.578 247.144 464.818 247.763C477.783 251.34 490.263 251.263 502.963 257.148C512.898 261.752 517.843 269.92 525.678 277.158C532.603 283.43 540.628 286.621 548.273 291.652C561.648 302.989 579.738 331.235 585.178 347.485C568.938 337.988 550.473 318.393 533.073 314.065C531.213 316.623 530.818 316.991 528.338 318.963C532.858 321.575 537.823 324.41 541.933 327.628C549.428 333.493 556.413 340.207 563.478 346.582C570.173 352.624 577.683 359.529 582.088 367.497C589.423 380.767 592.578 396.408 597.738 410.613C597.828 410.863 597.953 411.513 597.993 411.693C598.573 412.963 599.028 413.913 599.468 415.253C603.053 424.278 607.133 435.518 608.283 445.143C609.903 459.648 607.228 474.208 606.533 488.698C606.148 496.748 606.608 504.748 605.823 512.773C605.023 520.893 603.338 526.979 599.673 534.159C597.883 537.409 594.533 543.653 592.138 546.178C591.223 547.458 590.108 548.618 589.928 550.008C587.893 550.943 584.083 552.473 581.843 552.388C574.148 554.508 567.858 557.868 560.848 561.068C530.113 575.103 506.388 597.839 484.978 623.409C481.413 627.669 477.068 631.463 473.713 636.123C473.428 635.103 474.153 633.383 474.493 632.133C472.888 633.863 471.303 635.608 469.733 637.378L472.258 636.833L472.523 637.383C471.258 639.738 464.503 645.578 462.203 647.743C438.708 669.938 410.438 686.443 379.568 695.998C355.174 703.258 329.721 706.308 304.303 705.003C261.507 702.588 224.912 684.943 183.012 697.073C179.733 698.018 169.926 701.358 167.219 703.308C157.244 697.853 137.714 678.513 129.741 670.388C110.347 651.228 69.8959 601.864 69.9019 573.539C71.1794 569.804 70.2134 561.044 71.2599 556.464C73.9499 544.699 81.4214 528.433 87.2499 517.748L88.0224 518.219C92.3829 515.304 100.689 512.923 105.878 511.018C113.13 508.333 120.331 505.518 127.479 502.573C128.531 498.938 116.707 477.338 114.39 472.428C112.312 467.933 110.367 463.378 108.556 458.768C81.7938 389.381 102.411 328.799 165.564 289.594C170.175 286.731 175.255 283.825 179.674 280.712L180.409 280.19C180.59 272.957 180.865 268.127 183.142 261.162C187.672 246.937 197.79 235.164 211.173 228.548C223.662 222.364 239.07 220.647 252.375 225.144L253.122 223.222C254.818 218.733 275.384 194.389 279.423 191.419C283.113 192.299 285.228 192.574 289.118 192.301C295.974 190.204 301.647 186.645 308.605 184.608Z" fill="#CF915A"/>
<path d="M376.399 291.387C373.042 288.548 367.338 281.088 370.198 276.765C374.882 275.114 384.218 283.297 388.872 280.369C393.672 274.007 381.547 268.37 388.335 263.618C391.742 262.739 393.124 264.987 394.293 267.652L395.475 266.772C396.263 264.972 396.328 265.041 397.743 263.8C402.853 263.271 403.543 271.038 405.038 274.677C405.868 276.701 406.463 278.643 407.448 280.637C409.518 280.716 414.758 280.823 415.598 282.61C418.748 289.32 425.363 298.401 430.513 302.814C437.438 308.749 450.748 323.02 433.003 322.844C426.543 322.779 427.328 320.931 421.843 318.696C411.338 317.789 405.513 318.386 395.303 314.995C393.65 316.511 391.989 317.997 390.826 319.942C385.74 328.443 383.18 338.898 380.511 348.384C374.652 369.209 370.237 392.148 361.051 411.768C356.862 420.713 338.623 448.548 338.17 454.883C337.556 463.468 345.247 470.589 345.118 479.094C344.763 482.049 344.59 484.403 343.711 487.263C345.603 487.918 352.197 490.184 354.043 490.174L389.393 501.604C415.558 510.344 438.383 518.234 465.773 522.589C475.473 524.039 485.248 524.894 495.043 525.154C527.138 525.874 559.443 521.923 590.463 530.643C592.193 531.128 598.613 532.959 599.673 534.159C597.883 537.409 594.533 543.653 592.138 546.178C591.223 547.458 590.108 548.618 589.928 550.008C587.893 550.943 584.083 552.473 581.843 552.388C574.148 554.508 567.858 557.868 560.848 561.068C530.113 575.103 506.388 597.839 484.978 623.409C481.413 627.669 477.068 631.463 473.713 636.123C473.428 635.103 474.153 633.383 474.493 632.133C472.888 633.863 471.303 635.608 469.733 637.378L472.258 636.833L472.523 637.383C471.258 639.738 464.503 645.578 462.203 647.743C438.708 669.938 410.438 686.443 379.568 695.998C355.174 703.258 329.721 706.308 304.303 705.003C261.507 702.588 224.912 684.943 183.012 697.073C179.733 698.018 169.926 701.358 167.219 703.308C157.244 697.853 137.714 678.513 129.741 670.388C110.347 651.228 69.8959 601.864 69.9019 573.539C71.1794 569.804 70.2134 561.044 71.2599 556.464C73.9499 544.699 81.4214 528.433 87.2499 517.748L88.0224 518.219C92.3829 515.304 100.689 512.923 105.878 511.018C113.13 508.333 120.331 505.518 127.479 502.573C135.764 499.238 183.401 479.398 189.751 481.708L191.062 478.748C192.971 474.108 198.076 467.948 200.799 464.083C213.652 444.278 236.202 443.893 256.614 436.138C275.362 431.598 278.591 416.374 289.873 405.419C297.685 397.839 310.575 395.403 320.557 384.681C345.338 358.061 352.386 317.083 376.399 291.387Z" fill="#3D352D"/>
<path d="M343.711 487.263C345.603 487.918 352.197 490.184 354.043 490.174L389.393 501.604C415.558 510.344 438.383 518.234 465.773 522.589C475.473 524.039 485.248 524.894 495.043 525.154C527.138 525.874 559.443 521.923 590.463 530.643C592.193 531.128 598.613 532.959 599.673 534.159C597.883 537.409 594.533 543.653 592.138 546.178C591.223 547.458 590.108 548.618 589.928 550.008C587.893 550.943 584.083 552.473 581.843 552.388C574.148 554.508 567.858 557.868 560.848 561.068C530.113 575.103 506.388 597.839 484.978 623.409C481.413 627.669 477.068 631.463 473.713 636.123C473.428 635.103 474.153 633.383 474.493 632.133C472.888 633.863 471.303 635.608 469.733 637.378C461.648 643.093 408.193 656.828 397.593 659.133C409.578 648.313 414.373 647.208 429.438 644.803C428.763 644.568 428.083 644.353 427.398 644.148C413.593 640.048 403.483 644.903 391.617 651.223C404.758 636.818 414.818 630.668 434.523 629.208C435.503 628.848 436.718 628.268 437.693 627.838C432.313 626.203 426.648 625.698 421.063 626.358C398.013 629.098 383.048 643.798 369.505 660.853C371.011 657.423 372.651 654.058 374.422 650.758C386.246 628.618 404.768 611.638 429.053 604.278L427.398 603.408L426.643 603.483C401.203 606.103 384.438 620.068 368.917 638.893C376.732 622.073 385.556 609.658 399.538 597.433C403.683 597.363 411.378 597.473 414.813 595.093C414.898 593.318 414.003 593.838 412.783 591.618C415.953 590.428 421.833 591.628 424.643 589.988L424.868 589.043C423.988 587.233 422.543 586.528 420.838 585.353C424.598 585.083 432.723 586.333 434.848 583.898C434.888 582.123 433.863 581.248 432.723 579.783C436.473 579.033 446.313 577.788 448.328 575.323C447.098 570.548 436.238 573.068 432.308 573.658C430.993 572.103 432.808 571.273 431.408 569.533C427.813 569.428 423.868 572.388 420.608 574.333C420.573 572.533 420.663 571.838 419.363 570.703C416.198 570.598 412.003 575.888 408.843 578.258C407.973 576.948 408.073 576.908 406.733 576.153C400.113 576.818 398.568 589.798 395.639 592.858C378.881 610.368 368.213 625.658 359.163 648.543C362.222 632.293 370.788 614.493 379.073 600.368L378.302 599.358C365.603 611.588 356.349 627.838 351.075 644.593L350.313 644.328C357.526 611.583 375.185 575.738 398.853 551.988C401.043 549.788 411.018 540.573 411.628 538.468L410.903 537.908C407.463 537.458 402.848 538.918 399.943 540.523C387.186 547.663 383.926 560.648 375.977 571.823C359.267 595.308 348.869 621.868 341.332 649.403C343.259 614.683 349.637 589.958 364.725 558.333C343.372 584.893 331.637 616.798 328.423 650.653C325.334 634.103 324.083 617.533 324.32 600.633C324.385 595.973 326.683 590.043 326.705 585.213C326.739 577.638 325.761 569.893 325.902 562.328C326.149 548.993 329.179 536.453 331.867 523.508C332.494 520.488 332.945 512.273 333.898 509.893C337.112 501.868 340.636 495.668 343.711 487.263Z" fill="#999360"/>
<path d="M581.843 552.388L582.153 552.063L581.398 551.753C573.763 553.268 562.213 558.943 555.163 562.638C554.383 563.048 554.928 562.983 553.968 562.828C558.233 557.143 581.358 550.168 588.803 548.623C590.123 547.308 590.378 546.898 592.138 546.178C591.223 547.458 590.108 548.618 589.928 550.008C587.893 550.943 584.083 552.473 581.843 552.388Z" fill="#717F4E"/>
<path d="M437.693 627.838L440.128 628.538L440.328 628.948C437.903 629.328 436.998 629.293 434.523 629.208C435.503 628.848 436.718 628.268 437.693 627.838Z" fill="#4B4621"/>
<path d="M378.302 599.358L380.019 597.663L380.492 597.843C379.94 599.188 379.941 599.208 379.073 600.368L378.302 599.358Z" fill="#4B4621"/>
<path d="M427.398 603.408C428.788 603.258 430.168 602.923 431.403 603.433C430.713 603.693 429.738 604.098 429.053 604.278L427.398 603.408Z" fill="#4B4621"/>
<path d="M127.479 502.573C135.764 499.238 183.401 479.398 189.751 481.708C186.862 490.723 186.868 497.773 186.536 506.953C185.934 516.603 189.298 533.393 184.104 541.813C179.812 548.773 175.856 552.728 175.505 561.868C175.432 563.768 174.887 565.838 175.99 567.468C178.121 567.288 178.97 564.388 179.815 562.553C177.575 575.113 174.738 582.588 182.892 593.863C181.695 578.353 187.837 575.308 190.737 560.963C191.742 555.993 188.383 546.213 189.094 543.598C193.176 528.593 191.789 511.128 194.354 496.348C195.387 505.078 197.338 513.538 199.346 522.043C202.102 533.718 205.304 545.848 200.006 557.313C198.796 559.738 197.404 563.858 195.962 566.098C190.649 574.343 193.967 581.303 194.975 589.963C197.471 611.413 192.978 633.053 191.824 654.328C189.731 654.808 189.61 654.788 187.445 654.573C186.561 653.798 186.515 651.918 186.487 650.628C186.092 632.533 181.525 618.123 173.497 601.973L171.802 602.228C176.53 618.418 178.508 635.283 177.653 652.128C175.954 643.708 175.433 636.278 173.345 627.413C166.097 596.648 152.568 563.408 126.999 543.598C150.523 574.538 159.41 605.808 164.635 643.708L164.422 643.268C161.394 636.928 159.548 629.803 156.266 623.243C146.8 604.328 134.012 580.763 114.316 571.143C112.827 570.413 110.227 570.783 109.664 572.558C111.933 575.773 117.926 580.133 121.226 582.788C137.308 595.703 145.819 612.748 154.376 631.288C142.201 616.183 135.506 609.253 116.424 602.488C138.441 620.348 147.182 631.563 155.259 659.833C144.607 640.663 134.413 629.243 111.975 626.388C129.736 636.228 138.893 643.718 146.44 663.628C141.375 665.263 134.339 667.648 129.741 670.388C110.347 651.228 69.8959 601.864 69.9019 573.539C71.1794 569.804 70.2134 561.044 71.2599 556.464C73.9499 544.699 81.4214 528.433 87.2499 517.748L88.0224 518.219C92.3829 515.304 100.689 512.923 105.878 511.018C113.13 508.333 120.331 505.518 127.479 502.573Z" fill="#999360"/>
<path d="M171.802 602.228C171.261 600.618 171.206 600.583 171.094 598.908C172.253 599.548 172.703 600.708 173.497 601.973L171.802 602.228Z" fill="#4B4621"/>
<path d="M394.293 267.652L395.475 266.772C396.673 270.296 396.998 271.894 397.658 275.583C395.782 272.404 395.442 271.143 394.293 267.652Z" fill="#CAA383"/>
<path d="M350.313 644.328L351.075 644.593C350.872 646.228 349.622 649.758 349.07 651.478C348.978 648.663 349.454 646.963 350.313 644.328Z" fill="#726B5B"/>
<path d="M246.179 521.573C264.082 529.498 276.156 526.873 294.261 520.968C294.506 534.133 293.681 547.293 291.794 560.323C289.71 575.568 288.304 582.818 289.068 598.458C289.862 614.723 285.029 633.998 282.273 649.963C281.615 653.773 287.098 661.108 285.014 665.188C282.542 665.358 278.408 664.598 275.787 664.213C273.908 636.448 270.2 619.093 253.998 595.973L253.445 596.998C259.615 608.753 265.283 630.278 265.879 643.628C266.32 646.763 266.375 647.403 266.045 650.543L265.611 650.693L265.424 649.338C261.903 637.313 256.427 627.258 245.867 620.093C254.525 630.793 258.779 647.488 260.002 660.993L249.571 658.913C243.746 649.373 241.918 639.808 238.224 629.698C228.149 602.118 229.224 574.298 237.773 546.478C240.372 538.023 243.811 530.298 246.179 521.573Z" fill="#999360"/>
<path d="M265.879 643.628C266.32 646.763 266.375 647.403 266.045 650.543L265.611 650.693L265.424 649.338C265.748 647.888 265.799 645.193 265.879 643.628Z" fill="#726B5B"/>
<path d="M253.445 596.998C252.732 595.798 252.097 595.084 252.221 593.729C253.48 594.369 253.197 594.458 253.998 595.973L253.445 596.998Z" fill="#717F4E"/>
<path d="M309.459 554.218C310.07 563.073 310.226 572.913 310.297 581.833C310.504 588.828 312.861 597.098 313.649 604.488C315.514 621.998 315.498 637.668 315.379 655.088C317.79 658.528 321.975 663.038 320.148 667.293C317.08 669.363 304.755 667.498 300.097 667.133C298.638 664.778 296.301 660.978 295.968 658.118C293.86 640.023 296.63 618.453 300.036 600.553C301.178 594.558 304.379 588.843 305.502 582.298L305.572 581.878C306.512 571.543 307.584 564.433 309.459 554.218Z" fill="#999360"/>
<path d="M309.459 554.218C310.07 563.073 310.226 572.913 310.297 581.833L309.664 582.528C308.813 581.118 309.131 575.683 309.306 573.948L308.791 573.803C306.17 575.848 307.087 579.728 305.988 582.793L305.572 581.878C306.512 571.543 307.584 564.433 309.459 554.218Z" fill="#818162"/>
<path d="M211.413 586.538C221.322 599.043 230.684 639.998 233.103 656.508L227.892 655.843C220.111 655.048 212.308 654.483 204.494 654.148C203.491 648.093 203.511 642.088 203.802 635.978C204.629 618.593 204.816 602.858 211.413 586.538Z" fill="#999360"/>
<path d="M331.776 651.008L332.446 651.518C333.213 652.893 332.921 654.288 332.841 655.928C331.174 654.513 331.654 653.073 331.776 651.008Z" fill="#464039"/>
<path d="M354.043 490.174C356.88 489.629 360.801 490.913 363.668 490.433C384.447 486.813 404.323 478.618 423.988 471.158C431.528 468.298 441.203 463.743 448.453 460.133C486.873 441.003 525.993 421.958 569.208 417.033C579.753 415.833 588.658 414.348 599.468 415.253C603.053 424.278 607.133 435.518 608.283 445.143C609.903 459.648 607.228 474.208 606.533 488.698C606.148 496.748 606.608 504.748 605.823 512.773C605.023 520.893 603.338 526.979 599.673 534.159C598.613 532.959 592.193 531.128 590.463 530.643C559.443 521.923 527.138 525.874 495.043 525.154C485.248 524.894 475.473 524.039 465.773 522.589C438.383 518.234 415.558 510.344 389.393 501.604L354.043 490.174Z" fill="#717F4E"/>
<path d="M180.409 280.19C180.59 272.957 180.865 268.127 183.142 261.162C187.672 246.937 197.79 235.164 211.173 228.548C223.662 222.364 239.07 220.647 252.375 225.144C254.449 225.886 256.929 226.7 258.923 227.553C261.715 229.049 265.826 231.165 268.252 233.046C288.52 244.887 297.289 277.684 287.49 298.689C286.32 301.515 285.312 303.748 283.785 306.418C276.459 319.008 264.45 328.188 250.38 331.957C236.297 335.698 221.307 333.729 208.668 326.477C193.126 317.493 186.08 305.476 181.484 288.67L180.409 280.19Z" fill="#D6C8B1"/>
<path d="M180.409 280.19C180.59 272.957 180.865 268.127 183.142 261.162C187.672 246.937 197.79 235.164 211.173 228.548C223.662 222.364 239.07 220.647 252.375 225.144C254.449 225.886 256.929 226.7 258.923 227.553C261.715 229.049 265.826 231.165 268.252 233.046C264.903 233.049 260.165 232.072 256.606 231.714C218.45 227.878 198.252 275.126 224.46 301.847C232.108 309.782 242.646 314.28 253.668 314.313C265.303 314.394 272.901 310.907 281.559 303.353C282.874 302.205 286.105 299.246 287.49 298.689C286.32 301.515 285.312 303.748 283.785 306.418C276.459 319.008 264.45 328.188 250.38 331.957C236.297 335.698 221.307 333.729 208.668 326.477C193.126 317.493 186.08 305.476 181.484 288.67L180.409 280.19Z" fill="#EBE6D8"/>
<path d="M180.409 280.19L181.484 288.67L179.642 289.076L179.112 288.644C179.996 287.217 180.162 286.978 180.407 285.235L179.67 284.136C178.36 284.325 171.192 290.346 170.161 291.604C171.588 291.344 174.835 290.898 176.15 291.337C173.422 292.401 166.468 297.835 162.852 299.243C160.568 300.133 155.448 307.171 152.408 308.308C152.082 308.492 150.722 309.527 150.302 309.831C150.737 308.798 151.027 308.183 151.557 307.195C140.555 312.2 128.208 332.027 122.584 342.482C122.091 340.305 123.399 340.979 123.273 338.737C122.225 338.652 122.555 338.469 121.85 339.115C121.556 339.384 109.296 362.121 108.917 363.538C107.655 368.261 108.535 375.398 105.823 379.437L105.182 378.193L104.794 378.208L103.383 380.172C104.26 382.724 102.278 390.767 102.182 394.453C101.836 407.818 102.465 421.398 106.341 434.283C106.807 435.828 108.52 439.793 108.535 440.998C107.811 440.873 107.086 440.758 106.359 440.658C105.679 447.678 125.208 495.373 131.858 495.143C142.348 494.783 181.4 475.273 191.062 478.748L189.751 481.708C183.401 479.398 135.764 499.238 127.479 502.573C128.531 498.938 116.707 477.338 114.39 472.428C112.312 467.933 110.367 463.378 108.556 458.768C81.7938 389.381 102.411 328.799 165.564 289.594C170.175 286.731 175.255 283.825 179.674 280.712L180.409 280.19Z" fill="#9B7646"/>
<path d="M597.993 411.693C598.573 412.963 599.028 413.913 599.468 415.253C588.658 414.348 579.753 415.833 569.208 417.033C525.993 421.958 486.873 441.003 448.453 460.133C441.203 463.743 431.528 468.298 423.988 471.158C404.323 478.618 384.447 486.813 363.668 490.433C360.801 490.913 356.88 489.629 354.043 490.174C352.197 490.184 345.603 487.918 343.711 487.263C344.59 484.403 344.763 482.049 345.118 479.094C345.439 481.194 345.086 481.523 346.305 482.618C354.587 484.148 370.343 487.913 377.53 483.503L377.745 484.283C376.713 485.733 375.912 486.023 374.372 486.918L373.772 487.258C379.781 484.843 390.958 483.128 397.423 480.173C400.983 478.548 397.918 478.128 401.228 476.843C406.108 474.953 411.058 472.933 415.888 470.978C419.358 469.578 425.638 465.938 428.813 464.888C432.858 463.553 435.378 464.753 440.823 462.428C451.093 458.043 460.418 453.038 470.388 448.068C482.998 441.778 495.893 436.643 508.913 431.313C507.883 431.183 506.808 431.273 506.248 430.698C511.363 427.178 508.963 431.518 513.088 429.938C514.933 429.228 517.323 428.208 519.333 427.518C524.868 425.673 530.458 423.978 536.083 422.438C552.548 418.048 568.718 415.648 585.693 413.923C589.113 413.573 593.443 414.113 597.388 413.888C597.483 412.953 597.583 412.538 597.993 411.693Z" fill="#9B7646"/>
<path d="M279.423 191.419C283.113 192.299 285.228 192.574 289.118 192.301C288.159 192.6 282.976 193.891 282.827 194.125L285.651 194.48C285.037 194.624 283.675 195.052 283.273 195.491C275.618 203.862 268.463 212.694 260.637 220.886C260.42 221.113 260.112 222.455 260.053 222.697L259.837 223.542C259.562 224.659 259.372 226.771 258.923 227.553C256.929 226.7 254.449 225.886 252.375 225.144L253.122 223.222C254.818 218.733 275.384 194.389 279.423 191.419Z" fill="#9B7646"/>
<path d="M417.398 78.5894C417.978 77.4034 418.648 76.2619 419.393 75.1754C427.688 63.2349 433.153 68.3849 443.933 64.5279C447.313 63.3189 448.973 57.0739 454.153 56.5404C460.503 55.8869 469.478 60.5129 475.443 57.8069C490.788 50.8444 490.483 43.6019 508.848 40.9039C517.738 39.5664 526.808 40.1134 535.473 42.5089C539.158 43.5069 545.408 45.5719 549.013 45.5124C554.133 45.4279 558.783 40.4614 564.028 39.6679C571.558 38.5274 569.803 45.1729 574.723 48.4994C579.953 52.0384 591.238 48.7459 597.048 47.3899C614.593 46.9824 614.963 48.5104 628.113 59.2444C631.513 62.0184 653.413 61.3594 653.918 67.3194C650.768 73.3629 638.693 73.329 640.293 82.3365L641.053 83.2645C646.163 83.5505 655.443 80.1249 660.578 78.9389C666.293 77.6199 674.348 77.0139 680.078 77.2704C684.573 77.4719 690.048 83.161 695.303 83.8465C698.973 84.3255 707.983 81.2224 709.493 83.9339C711.838 88.1424 711.243 90.1745 717.513 91.6705C720.053 92.2775 724.783 92.5189 727.673 92.7424C733.723 96.5889 733.003 98.0835 737.443 103.622C739.578 106.284 745.383 109.101 746.508 113.146C746.928 114.667 746.398 114.93 745.643 115.865C738.703 118.988 730.553 115.126 723.763 116.736C723.058 116.902 719.998 120.491 719.233 121.424C728.983 123.33 738.168 126.829 747.778 128.453C751.983 129.163 759.908 123.407 764.923 125.102C770.278 126.148 772.758 130.42 776.363 131.972C783.713 135.137 791.168 131.743 797.538 139.873C798.248 140.779 798.513 141.51 798.883 142.596C797.538 147.147 788.748 143.128 785.368 146.811C785.378 149.318 786.883 149.418 787.783 150.971C791.978 158.21 804.318 149.925 808.208 154.248C811.663 158.089 820.888 160.912 822.998 163.106C822.858 165.949 817.098 167.513 814.813 168.615C818.578 170.841 824.553 175.271 827.633 175.947C837.143 178.036 844.243 170.827 846.513 183.971C847.063 187.147 855.203 189.585 856.383 194.141C855.553 195.819 855.023 196.037 853.033 196.752C848.463 198.397 843.113 198.333 838.538 199.077C836.183 199.46 834.138 204.86 830.628 204.822C827.153 204.785 823.373 201.706 820.528 202.51C813.358 204.538 815.033 213.116 804.063 207.826C798.913 205.34 798.483 204.274 792.693 202.991C787.968 204.667 784.383 208.088 780.078 210.744C776.558 212.913 769.098 214.177 766.293 216.326C765.883 216.007 742.378 216.562 740.068 216.841C725.058 218.649 724.373 224.909 713.173 230.769C705.143 234.97 696.618 237.785 688.078 240.729C692.253 266.179 694.853 289.175 705.988 312.971C713.308 328.613 722.693 340.302 732.728 354.132C759.608 391.179 774.513 425.293 774.383 471.548C771.243 472.128 761.523 480.478 758.353 482.903C751.718 487.918 744.833 492.593 737.728 496.903C722.173 506.213 685.948 523.778 668.648 527.663C644.148 536.238 614.018 540.623 589.928 550.008C590.108 548.618 591.223 547.458 592.138 546.178C594.533 543.653 597.883 537.409 599.673 534.159C603.338 526.979 605.023 520.893 605.823 512.773C606.608 504.748 606.148 496.748 606.533 488.698C607.228 474.208 609.903 459.648 608.283 445.143C607.133 435.518 603.053 424.278 599.468 415.253C599.028 413.913 598.573 412.963 597.993 411.693C597.953 411.513 597.828 410.863 597.738 410.613C592.578 396.408 589.423 380.767 582.088 367.497C577.683 359.529 570.173 352.624 563.478 346.582C556.413 340.207 549.428 333.493 541.933 327.628C537.823 324.41 532.858 321.575 528.338 318.963C530.818 316.991 531.213 316.623 533.073 314.065C550.473 318.393 568.938 337.988 585.178 347.485C579.738 331.235 561.648 302.989 548.273 291.652C540.628 286.621 532.603 283.43 525.678 277.158C517.843 269.92 512.898 261.752 502.963 257.148C490.263 251.263 477.783 251.34 464.818 247.763C462.578 247.144 456.778 242.877 454.683 241.188C441.068 230.21 424.943 231.728 408.838 234.97C393.728 237.663 383.741 229.498 372.211 220.945C361.266 224.588 355.138 220.683 344.706 217.685C337.418 215.592 312.958 221.482 311.817 211.471C313.371 205.383 323.797 205.872 328.154 204.187C329.415 203.7 334.688 199.872 336.181 198.821C329.387 194.573 316.276 186.737 308.605 184.608C301.647 186.645 295.974 190.204 289.118 192.301C285.228 192.574 283.113 192.299 279.423 191.419C276.24 189.683 273.318 186.019 270.056 184.567C264.909 182.276 252.997 188.528 249.2 181.995C246.116 175.863 253.176 174.851 255.388 170.402C256.718 167.727 256.402 164.251 257.454 161.809C259.158 157.855 265.822 158.415 269.161 158.592C274.498 158.876 288.113 159.168 290.46 153.298C288.138 149.088 279.005 151.233 278.792 147.073C283.196 140.196 289.876 141.363 295.89 137.288C299.577 134.789 300.513 129.117 306.394 128.597C313.537 127.966 319.087 130.956 326.51 128.708C328.831 128.005 332.363 126.851 333.693 124.67C332.458 120.697 324.692 121.302 321.979 116.925C322.475 110.002 343.411 104.913 349.693 103.919C349.156 100.554 348.189 97.9369 350.758 95.4714C356.259 93.6074 365.1 95.2139 371.28 95.1724C378.775 95.1224 386.275 95.0519 393.765 94.2274C400.373 93.4999 402.643 86.8315 409.548 87.091C418.998 87.446 426.373 93.9449 436.163 94.0844C441.638 94.1624 446.453 92.6314 450.443 88.8259C451.388 86.5854 451.923 86.1119 450.458 84.0864C448.443 83.0534 446.018 83.1794 443.678 83.0589C436.763 79.8679 423.448 88.2194 417.398 78.5894Z" fill="#3D352D"/>
<path d="M640.993 279.015C651.128 253.12 662.718 248.275 688.078 240.729C692.253 266.179 694.853 289.175 705.988 312.971C713.308 328.613 722.693 340.302 732.728 354.132C759.608 391.179 774.513 425.293 774.383 471.548C771.243 472.128 761.523 480.478 758.353 482.903C751.718 487.918 744.833 492.593 737.728 496.903C722.173 506.213 685.948 523.778 668.648 527.663C658.348 509.823 653.733 496.788 653.028 476.023C652.793 469.053 652.593 456.993 651.133 450.553C648.048 436.968 644.173 430.058 643.303 415.688C643.243 406.493 643.593 399.018 646.923 390.31C648.543 386.069 651.143 380.343 651.723 376.008C650.068 371.739 648.893 370.184 646.198 366.661C642.618 372.171 636.363 389.649 632.653 391.085C630.268 389.76 627.588 383.28 626.763 380.507C619.468 356.134 617.053 330.247 626.428 306.035C628.798 299.923 635.738 289.141 639.108 282.685L640.993 279.015Z" fill="#717F4E"/>
<path d="M639.108 282.685C643.333 284.09 640.983 288.982 651.248 291.923C658.408 302.396 666.488 312.567 673.468 323.207C675.888 326.898 679.958 331.096 682.103 334.97C683.793 338.021 682.353 341.182 684.388 345.268C684.898 346.282 685.303 351.165 687.028 353.268C687.298 351.892 687.288 351.653 687.298 350.237C690.868 356.367 694.083 380.995 693.498 388.672C693.048 394.633 692.053 421.168 688.748 423.868C685.688 424.053 684.288 423.328 682.148 423.483C676.978 423.263 667.763 420.018 661.993 419.363C659.233 419.053 644.618 416.993 643.303 415.688C643.243 406.493 643.593 399.018 646.923 390.31C648.543 386.069 651.143 380.343 651.723 376.008C650.068 371.739 648.893 370.184 646.198 366.661C642.618 372.171 636.363 389.649 632.653 391.085C630.268 389.76 627.588 383.28 626.763 380.507C619.468 356.134 617.053 330.247 626.428 306.035C628.798 299.923 635.738 289.141 639.108 282.685Z" fill="#CF915A"/>
<path d="M640.993 279.015L641.768 279.656C642.558 280.299 642.988 280.557 643.838 281.022C648.308 283.479 651.728 290.219 655.278 293.29C687.283 320.998 699.953 367.181 693.218 408.188C692.398 413.178 693.028 420.373 691.858 425.283H691.873C691.613 424.883 691.308 424.428 691.058 424.023C690.138 424.948 690.468 424.643 690.058 426.098C690.783 426.798 692.338 427.008 693.503 427.508C691.553 427.808 683.483 425.208 682.148 423.483C684.288 423.328 685.688 424.053 688.748 423.868C692.053 421.168 693.048 394.633 693.498 388.672C694.083 380.995 690.868 356.367 687.298 350.237C687.288 351.653 687.298 351.892 687.028 353.268C685.303 351.165 684.898 346.282 684.388 345.268C682.353 341.182 683.793 338.021 682.103 334.97C679.958 331.096 675.888 326.898 673.468 323.207C666.488 312.567 658.408 302.396 651.248 291.923C640.983 288.982 643.333 284.09 639.108 282.685L640.993 279.015Z" fill="#9B7646"/>
<path d="M508.773 163.634C517.088 160.287 520.803 156.683 528.058 152.339C531.153 159.024 533.998 163.848 538.728 169.585C541.248 171.849 543.578 173.974 546.253 176.061C556.063 181.712 563.863 184.719 571.783 193.556C579.008 200.081 582.468 222.762 577.943 230.767C568.338 247.744 561.728 249.619 559.798 271.051C546.868 265.612 537.173 256.812 530.228 244.676C524.243 234.233 522.708 221.823 525.963 210.235C526.563 208.1 527.713 204.774 527.463 202.684C521.843 200.528 518.963 211.344 517.858 215.019C510.593 203.39 500.623 197.112 506.078 181.543C507.418 177.715 507.778 172.262 507.793 168.232C507.708 166.47 507.368 164.779 508.773 163.634Z" fill="#CF915A"/>
<path d="M508.773 163.634C517.088 160.287 520.803 156.683 528.058 152.339C531.153 159.024 533.998 163.848 538.728 169.585C534.933 169.522 515.673 164.53 510.068 164.453C509.693 164.448 509.143 163.941 508.773 163.634Z" fill="#717F4E"/>
<path d="M508.773 163.634C509.143 163.941 509.693 164.448 510.068 164.453C515.673 164.53 534.933 169.522 538.728 169.585C541.248 171.849 543.578 173.974 546.253 176.061C538.423 173.42 530.463 173.762 522.343 171.356C519.083 170.389 510.828 168.203 507.793 168.232C507.708 166.47 507.368 164.779 508.773 163.634Z" fill="#9B7646"/>
<path d="M415.298 169.834C420.388 169.402 430.498 172.442 438.073 172.699C447.593 184.296 455.063 189.861 469.888 193.158C481.088 195.649 481.453 198.073 489.128 205.086C499.028 214.129 507.023 219.554 510.103 233.625C510.748 236.579 512.773 240.249 513.513 243.724L513.068 244.337L511.538 243.708C495.423 235.017 485.168 239.619 469.158 232.996C464.993 231.349 460.918 227.57 457.133 225.619C440.013 216.8 436.613 199.021 425.603 184.811C422.423 180.703 412.273 174.741 411.333 172.3C412.178 170.837 413.653 170.52 415.298 169.834Z" fill="#CF915A"/>
<path d="M602.038 222.116L605.343 225.894C608.153 229.075 610.658 236.662 613.168 240.46C615.963 244.698 618.708 250.057 621.518 254.247C624.303 258.404 627.648 261.383 629.998 266.09L628.273 269.88C622.908 279.439 618.088 283.797 612.088 292.445C608.158 298.112 605.253 307.043 601.248 313.611L600.783 314.365C590.608 303.242 583.288 296.528 580.393 281.29C576.678 261.752 587.683 242.534 598.423 226.927C599.108 225.716 601.098 223.321 602.038 222.116Z" fill="#CF915A"/>
<path d="M602.038 222.116L605.343 225.894C608.153 229.075 610.658 236.662 613.168 240.46C615.963 244.698 618.708 250.057 621.518 254.247C624.303 258.404 627.648 261.383 629.998 266.09L628.273 269.88C616.513 264.682 610.103 237.876 600.978 228.491C601.433 228.963 598.068 226.686 598.423 226.927C599.108 225.716 601.098 223.321 602.038 222.116Z" fill="#9B7646"/>
<path d="M644.098 171.171C652.588 176.025 658.483 176.16 667.173 171.917C669.893 177.12 674.078 184.666 675.768 190.072C674.143 190.05 670.233 190.044 668.858 189.614C660.903 187.129 657.293 182.46 649.713 189.183C647.963 190.734 646.243 193.157 644.643 194.817C640.468 194.791 637.688 194.84 633.598 195.423C632.233 196.593 630.043 198.842 628.968 199.682C626.003 201.991 619.398 203.835 618.068 207.652C619.778 211.875 632.543 211.536 636.873 211.675C640.448 218.41 646.383 228.788 644.713 236.71C643.448 242.732 639.218 248.612 636.338 253.995C634.203 257.999 632.458 262.281 629.998 266.09C627.648 261.383 624.303 258.404 621.518 254.247C618.708 250.057 615.963 244.698 613.168 240.46C610.658 236.662 608.153 229.075 605.343 225.894L602.038 222.116C606.053 216.807 608.968 211.462 612.008 205.834C615.128 200.062 619.713 185.093 625.118 181.616C630.433 178.196 638.063 174.851 644.098 171.171Z" fill="#717F4E"/>
<path d="M375.523 172.282C383.309 171.69 386.272 174.985 393.268 177.174C395.324 177.818 398.813 177.741 401.003 178.662C416.133 185.024 420.508 193.316 427.363 206.612C430.003 211.624 432.543 216.689 434.973 221.805C413.463 223.793 400.898 233.063 382.38 217.038C389.508 214.8 396.268 215.206 403.663 215.218C408.363 214.281 411.818 213.362 413.083 208.376C411.968 204.398 407.388 205.585 405.618 203.716C398.513 196.212 400.028 196.321 389.325 196.783C384.025 192.116 379.718 188.554 372.221 188.05C365.262 187.583 361.18 194.4 355.017 195.691C347.491 197.268 337.285 191.254 331.155 187.405C342.138 177.358 343.457 186.652 355.603 183.761C362.66 182.082 367.537 175.782 374.82 172.587L375.523 172.282Z" fill="#CF915A"/>
<path d="M609.013 157.426C610.288 157.165 610.213 157.117 611.463 157.429L611.828 158.385C606.618 182.726 612.813 192.938 593.393 210.181L591.408 203.181C583.788 181.236 576.073 179.78 591.348 158.013C597.863 158.525 602.588 158.045 609.013 157.426Z" fill="#717F4E"/>
<path d="M667.173 171.917C676.803 166.573 675.328 168.718 685.043 170.011C688.953 170.531 696.068 166.185 701.653 167.42L702.368 168.178C701.378 170.377 698.723 173.433 697.048 175.271C692.728 176.034 685.713 175.831 683.168 179.457C677.083 188.125 698.693 189.999 703.558 190.181C701.768 194.386 700.528 197.694 699.273 202.095C696.448 212.005 697.578 223.604 686.268 227.881C684.893 223.236 683.393 215.012 682.108 209.8C706.148 205.33 686.043 196.892 675.768 190.072C674.078 184.666 669.893 177.12 667.173 171.917Z" fill="#EBE6D8"/>
<path d="M737.728 187.162C739.243 187.204 738.503 187.098 739.988 188.03C740.123 188.639 740.428 189.318 740.093 189.701C733.043 197.79 724.798 208.427 716.808 215.183C713.733 217.783 707.488 220.545 704.698 221.755L704.018 221.215C705.153 213.309 705.548 205.768 707.963 198.101C711.883 185.639 720.683 187.496 730.873 190.167C733.373 189.257 735.338 188.294 737.728 187.162Z" fill="#EBE6D8"/>
<path d="M543.253 145.794C548.208 145.586 550.998 148.57 560.398 147.615C564.163 157.706 567.723 167.871 571.078 178.104C569.558 177.217 567.803 176.36 566.228 175.544C546.613 168.269 544.253 168.289 535.428 148.23C538.243 147.213 540.363 146.582 543.253 145.794Z" fill="#717F4E"/>
<path d="M473.493 164.566C472.763 162.455 471.313 158.925 471.573 156.858C475.693 155.282 491.323 163.543 497.488 164.643C500.038 167.058 493.983 186.989 493.153 191.482C479.008 182.209 478.718 180.789 473.493 164.566Z" fill="url(#paint0_linear_10556_5577)"/>
<path d="M473.493 164.566C472.763 162.455 471.313 158.925 471.573 156.858C475.693 155.282 491.323 163.543 497.488 164.643C490.358 167.582 474.803 161.816 473.493 164.566Z" fill="#818162"/>
<path d="M654.478 228.526C659.748 218.569 670.983 211.098 682.108 209.8C683.393 215.012 684.893 223.236 686.268 227.881C675.153 231.336 666.348 232.825 654.703 236.998C654.423 234.054 654.468 231.477 654.478 228.526Z" fill="#717F4E"/>
<path d="M751.328 194.858C755.713 195.748 757.128 196.142 761.673 196.396C773.053 195.182 774.738 193.414 783.768 200.449C777.978 205.213 772.728 207.332 765.258 208.6C757.668 209.525 744.408 208.669 736.063 208.625C740.938 202.383 744.413 198.985 751.328 194.858Z" fill="#EBE6D8"/>
<path d="M761.673 196.396C773.053 195.182 774.738 193.414 783.768 200.449C777.978 205.213 772.728 207.332 765.258 208.6C763.243 207.937 757.813 199.171 757.878 196.983C759.233 196.933 760.428 197.013 761.673 196.396Z" fill="#FEFEFE"/>
<path d="M452.148 166.342C455.458 163.84 458.783 161.357 462.118 158.892C463.218 161.185 463.778 162.529 464.613 164.932C466.583 170.935 468.468 176.466 469.918 182.623C458.993 181 454.008 178.046 446.728 169.741L452.148 166.342Z" fill="#CF915A"/>
<path d="M452.148 166.342C455.458 163.84 458.783 161.357 462.118 158.892C463.218 161.185 463.778 162.529 464.613 164.932C461.653 164.916 456.053 166.092 452.148 166.342Z" fill="#9B7646"/>
<path d="M574.803 144.368C577.333 143.971 583.518 150.991 585.343 152.844C583.483 156.352 580.613 159.941 578.208 163.161C577.783 163.542 577.263 163.822 576.768 164.133L575.608 163.699C571.718 159.664 570.108 151.067 568.808 145.524L574.803 144.368Z" fill="#717F4E"/>
<path d="M621.603 156.191C622.583 156.162 623.563 156.176 624.543 156.233C628.388 156.444 635.058 157.448 637.388 160.676C639.733 163.924 633.958 166.156 632.043 167.105C627.823 169.237 624.113 170.93 619.768 172.808C620.318 166.777 620.493 162.2 621.603 156.191Z" fill="#717F4E"/>
<path d="M645.633 212.947C649.113 213.305 653.613 214.323 657.143 215.022L654.458 217.432C653.163 218.579 651.593 219.755 650.223 220.838C648.768 218.611 646.998 215.327 645.633 212.947Z" fill="#818162"/>
<path d="M774.383 471.548C774.208 511.818 764.608 552.828 735.568 582.303C694.303 624.243 628.098 616.658 584.288 653.623C561.043 673.243 550.463 704.208 534.118 729.053C510.538 764.888 474.808 783.788 432.073 783.518C384.721 783.218 344.931 759.558 301.116 745.423C254.633 731.188 209.214 734.858 167.219 703.308C169.926 701.358 179.733 698.018 183.012 697.073C224.912 684.943 261.507 702.588 304.303 705.003C329.721 706.308 355.174 703.258 379.568 695.998C410.438 686.443 438.708 669.938 462.203 647.743C464.503 645.578 471.258 639.738 472.523 637.383L472.258 636.833L469.733 637.378C471.303 635.608 472.888 633.863 474.493 632.133C474.153 633.383 473.428 635.103 473.713 636.123C477.068 631.463 481.413 627.669 484.978 623.409C506.388 597.839 530.113 575.103 560.848 561.068C567.858 557.868 574.148 554.508 581.843 552.388C584.083 552.473 587.893 550.943 589.928 550.008C614.018 540.623 644.148 536.238 668.648 527.663C685.948 523.778 722.173 506.213 737.728 496.903C744.833 492.593 751.718 487.918 758.353 482.903C761.523 480.478 771.243 472.128 774.383 471.548Z" fill="#818162"/>
<path d="M69.9019 573.539C65.2334 542.974 90.1669 525.258 90.0489 497.968C89.9954 485.588 83.2279 469.038 78.6359 457.533C70.4259 436.973 60.4174 413.263 60.3769 390.704C60.2579 324.355 124.277 298.511 153.022 247.672C159.886 235.533 166.725 216.618 170.757 203.368C181.69 167.444 191.225 138.554 218.024 110.743C249.116 78.4785 292.932 62.056 337.306 61.1295C360.013 60.6555 380.554 65.667 401.993 72.4665C405.703 73.644 414.808 76.0819 417.398 78.5894C423.448 88.2194 436.763 79.8679 443.678 83.0589C446.018 83.1794 448.443 83.0534 450.458 84.0864C451.923 86.1119 451.388 86.5854 450.443 88.8259C446.453 92.6314 441.638 94.1624 436.163 94.0844C426.373 93.9449 418.998 87.446 409.548 87.091C402.643 86.8315 400.373 93.4999 393.765 94.2274C386.275 95.0519 378.775 95.1224 371.28 95.1724C365.1 95.2139 356.259 93.6074 350.758 95.4714C348.189 97.9369 349.156 100.554 349.693 103.919C343.411 104.913 322.475 110.002 321.979 116.925C324.692 121.302 332.458 120.697 333.693 124.67C332.363 126.851 328.831 128.005 326.51 128.708C319.087 130.956 313.537 127.966 306.394 128.597C300.513 129.117 299.577 134.789 295.89 137.288C289.876 141.363 283.196 140.196 278.792 147.073C279.005 151.233 288.138 149.088 290.46 153.298C288.113 159.168 274.498 158.876 269.161 158.592C265.822 158.415 259.158 157.855 257.454 161.809C256.402 164.251 256.718 167.727 255.388 170.402C253.176 174.851 246.116 175.863 249.2 181.995C252.997 188.528 264.909 182.276 270.056 184.567C273.318 186.019 276.24 189.683 279.423 191.419C275.384 194.389 254.818 218.733 253.122 223.222L252.375 225.144C239.07 220.647 223.662 222.364 211.173 228.548C197.79 235.164 187.672 246.937 183.142 261.162C180.865 268.127 180.59 272.957 180.409 280.19L179.674 280.712C175.255 283.825 170.175 286.731 165.564 289.594C102.411 328.799 81.7938 389.381 108.556 458.768C110.367 463.378 112.312 467.933 114.39 472.428C116.707 477.338 128.531 498.938 127.479 502.573C120.331 505.518 113.13 508.333 105.878 511.018C100.689 512.923 92.3829 515.304 88.0224 518.219L87.2499 517.748C81.4214 528.433 73.9499 544.699 71.2599 556.464C70.2134 561.044 71.1794 569.804 69.9019 573.539Z" fill="#717F4E"/>
<path d="M433.538 83.1129C436.918 83.0564 440.298 83.0384 443.678 83.0589C446.018 83.1794 448.443 83.0534 450.458 84.0864C451.923 86.1119 451.388 86.5854 450.443 88.8259C446.118 87.4274 437.273 84.9319 433.538 83.1129Z" fill="#EBE6D8"/>
<path d="M677.133 636.838C700.628 632.618 702.923 655.273 685.153 667.183C667.578 678.963 649.083 686.073 631.728 698.233C615.413 709.668 602.838 726.228 585.338 735.313C584.418 735.658 581.553 736.678 580.783 736.698C549.388 737.538 577.308 695.493 581.978 688.463C602.703 657.263 642.048 642.728 677.133 636.838Z" fill="#818162"/>
<path d="M138.417 169.756C143.564 169.149 149.088 170.426 150.425 175.936C154.07 190.953 143.65 216.63 137.598 230.066C129.05 249.044 98.0143 287.594 78.5198 294.309C53.1783 297.722 72.6368 250.31 77.6178 239.666C81.5333 231.371 86.1863 223.444 91.5213 215.982C99.7548 204.336 125.168 174.575 138.417 169.756Z" fill="#717F4E"/>
<defs>
<linearGradient id="paint0_linear_10556_5577" x1="485.318" y1="163.434" x2="487.188" y2="190.067" gradientUnits="userSpaceOnUse">
<stop stop-color="#B88350"/>
<stop offset="1" stop-color="#DC9D67"/>
</linearGradient>
</defs>
</svg>
